<?xml version="1.0" encoding="UTF-8" standalone="no"?>
<!-- Created with Inkscape (http://www.inkscape.org/) -->

<svg
   version="1.1"
   id="svg1"
   width="512"
   height="512"
   viewBox="0 0 512 512"
   xmlns="http://www.w3.org/2000/svg"
   xmlns:svg="http://www.w3.org/2000/svg">
  <defs
     id="defs1" />
  <g
     id="g1">
    <g
       id="g2"
       style="display:inline">
      <path
         style="fill:#9ed7f1"
         d="M 14.01027,479.6845 C 8.9445864,478.0713 2.6266388,471.32856 1.157018,465.96705 0.20503586,462.494 -0.00429328,415.20004 0.21628787,253.42687 L 0.5,45.353736 3.2585382,41.185406 c 1.517196,-2.292581 4.6342269,-5.409672 6.9267348,-6.926868 L 14.353471,31.5 147.92674,31.223499 C 296.46167,30.916027 286.12137,30.4547 293.37946,37.712796 297.74361,42.076948 300,48.823779 300,57.508907 v 6.145904 l 13.42513,-0.455316 C 421.64407,59.529232 512,147.2577 512,256 c 0,79.81184 -48.76415,150.98509 -123.5,180.25326 -22.58118,8.84327 -40.57657,12.07672 -67.74815,12.17313 l -20.74815,0.0736 -0.002,6.0685 c -0.003,8.75258 -2.23475,15.27798 -6.72153,19.65012 -7.49473,7.30323 3.47316,6.79272 -143.4982,6.67929 -94.001277,-0.0725 -133.292006,-0.42369 -135.77185,-1.21341 z m 124.4236,-22.01249 c 2.04572,-1.49587 2.42427,-6.21359 0.64167,-7.99701 C 137.29645,447.89509 28.457556,447.51472 25,449.27633 c -3.075853,1.56713 -3.746704,5.24109 -1.42537,7.80614 1.670869,1.84628 3.803152,1.91753 57.389228,1.91753 44.687812,0 56.011732,-0.26167 57.470012,-1.32799 z m 1.24891,-34.66266 c 1.00202,-2.01006 0.98419,-2.87836 -0.0924,-4.5 -1.3066,-1.96806 -2.50291,-2.01471 -58.212193,-2.2703 -52.583897,-0.24124 -56.972552,-0.13244 -58.128177,1.44113 -1.695737,2.30902 -1.571498,4.85546 0.329651,6.75661 1.408568,1.40857 7.714069,1.55169 58.220595,1.32143 L 138.44119,425.5 Z m -0.0924,-32.5187 c 1.07661,-1.62164 1.09444,-2.48994 0.0924,-4.5 L 138.44119,383.5 81.800246,383.24178 C 20.241019,382.96113 22,382.81025 22,388.37143 c 0,4.73262 -0.980081,4.66017 59.336273,4.38667 55.752867,-0.25281 56.947427,-0.2993 58.254087,-2.26745 z M 337.013,320.92919 c 23.21111,-6.43213 41.64365,-25.37375 47.61416,-48.92919 2.16427,-8.5387 2.17734,-23.60874 0.0278,-32 -6.08761,-23.76397 -24.29334,-42.45897 -47.65113,-48.93174 -8.41774,-2.33268 -23.50325,-2.79787 -31.95454,-0.9854 L 300,191.16573 v 64.85828 64.85829 l 4.25,0.95176 c 8.06607,1.80634 24.63012,1.34886 32.76298,-0.90487 z M 96.24185,299.57836 c 8.15052,-2.87663 15.27491,-7.81575 19.07787,-13.2261 l 2.81972,-4.01153 0.18028,-41.22532 L 118.5,199.89008 160.75,178.53293 203,157.17578 v 25.0191 c 0,22.42522 -0.16434,24.95604 -1.58508,24.41084 -11.27875,-4.32806 -32.89115,1.67803 -42.13859,11.71033 -5.55775,6.02944 -7.03082,11.41981 -4.75169,17.38765 4.25391,11.1387 22.15139,14.37268 40.67699,7.35013 6.59722,-2.50083 15.45527,-9.98844 17.44212,-14.74362 C 213.72761,225.71617 214,214.40514 214,171.99228 c 0,-50.81921 -0.0836,-53.23578 -1.96891,-56.93135 -2.63262,-5.16035 -8.09452,-8.45356 -13.96028,-8.41725 -3.8446,0.0238 -8.93999,2.2143 -32.07081,13.78726 -46.69993,23.36519 -53.39168,27.14197 -55.85443,31.52385 C 108.02574,155.72651 108,156.41449 108,209.30555 v 53.53324 l -3.75,-1.04026 C 98.868544,260.30572 85.479706,261.42036 78.908237,263.90828 66.551205,268.58658 58,277.49918 58,285.70014 c 0,10.91288 7.355053,16.09333 23,16.19982 6.505577,0.0443 10.081894,-0.50045 15.24185,-2.3216 z M 118,173.6391 c 0,-13.67163 0.13257,-14.6722 2.25,-16.98232 1.2375,-1.35011 19.03968,-10.90252 39.5604,-21.22757 32.96918,-16.58852 37.62334,-18.66292 40,-17.82831 l 2.6896,0.9445 0.25571,13.4773 0.2557,13.4773 -41.67226,21 c -22.91974,11.55 -42.04731,21.15 -42.5057,21.33333 C 118.37505,188.01667 118,181.62926 118,173.6391 Z"
         id="path8" />
      <path
         style="fill:#f9a59c"
         d="M 15.557521,479.76093 C 9.8746533,478.24647 2.6782165,470.75052 1.1746941,464.77949 c -1.69205408,-6.71975 -1.69205408,-410.839227 0,-417.558983 C 2.9193596,40.291812 9.9541619,33.58728 17.096259,32.04643 21.098144,31.183055 56.354743,30.960957 153,31.190308 L 283.5,31.5 287.9556,34 c 2.45057,1.375 5.82557,4.450076 7.5,6.833503 2.77017,3.943158 3.07519,5.169124 3.38617,13.610311 l 0.34177,9.276806 13.7675,-0.495116 C 421.41746,59.324759 512,147.05193 512,256 c 0,79.81184 -48.76415,150.98509 -123.5,180.25326 -22.7405,8.90567 -40.60027,12.09763 -68.1609,12.18198 l -21.1609,0.0648 -0.3391,9.1665 c -0.30776,8.31932 -0.62047,9.567 -3.3835,13.5 -1.67443,2.38342 -5.04943,5.4585 -7.5,6.8335 l -4.4556,2.5 -132,0.15579 C 61.943984,480.76149 18.232314,480.47376 15.557521,479.76093 Z M 139.42857,457.42857 c 2.03797,-2.03797 2.00216,-5.29513 -0.0836,-7.59983 C 137.77912,448.09845 134.66712,448 81.536142,448 20.812398,448 21.75,447.91649 21.75,453.32491 21.75,459.2586 19.04785,459 81.051016,459 c 50.308604,0 56.985864,-0.17974 58.377554,-1.57143 z M 139,425 c 1.1,-1.1 2,-2.9 2,-4 0,-1.1 -0.9,-2.9 -2,-4 -1.95176,-1.95176 -3.33333,-2 -57.277494,-2 C 20.791884,415 22,414.87863 22,421 c 0,6.12137 -1.208116,6 59.722506,6 53.944164,0 55.325734,-0.0482 57.277494,-2 z m -0.22251,-32.5567 c 2.53843,-1.77799 2.87841,-5.16377 0.80354,-8.00217 -1.37048,-1.87481 -3.29655,-1.95051 -56.370246,-2.21571 -35.258845,-0.17618 -55.903301,0.0874 -57.607875,0.73545 -4.458502,1.69512 -5.15422,7.63565 -1.203205,10.27382 0.605163,0.40408 26.087668,0.74158 56.62779,0.75 48.654806,0.0134 55.802576,-0.17736 57.749996,-1.54139 z m 198.23549,-71.51411 c 23.21111,-6.43213 41.64365,-25.37375 47.61416,-48.92919 2.16427,-8.5387 2.17734,-23.60874 0.0278,-32 -6.08761,-23.76397 -24.29334,-42.45897 -47.65113,-48.93174 -8.52053,-2.36116 -23.12049,-2.78114 -32.33698,-0.93021 L 299,191.2761 v 64.75377 64.75377 l 4.75,0.98996 c 8.8343,1.84119 25.05788,1.42934 33.26298,-0.84441 z M 96.777156,299.9667 c 8.613514,-2.97582 17.385184,-9.60487 20.082694,-15.17718 C 118.93766,280.49734 119,279.20022 119,240.26228 v -40.10627 l 41.60565,-21.078 C 183.48875,167.4851 202.38875,158 202.60565,158 202.82254,158 203,169.01386 203,182.47525 v 24.47525 l -2.5651,-0.97525 c -3.66478,-1.39335 -15.06957,-1.18301 -20.9349,0.3861 -6.50643,1.74062 -14.53912,5.85609 -18.89515,9.68074 -6.29356,5.52581 -9.27277,14.8429 -6.48266,20.27365 4.13455,8.04763 11.76047,11.19265 25.27319,10.42297 14.30888,-0.81503 26.22697,-6.67944 32.33969,-15.91305 l 2.76493,-4.17658 0.31896,-49.57454 c 0.17542,-27.266 0.0334,-51.91433 -0.31565,-54.77408 -1.11413,-9.12834 -6.94646,-15.25228 -15.2895,-16.05394 -4.78175,-0.45946 -6.15062,0.13783 -44.03413,19.21397 -21.50443,10.8285 -40.29866,20.63186 -41.76495,21.78524 -1.4663,1.15339 -3.49957,3.93244 -4.5184,6.17567 -1.72672,3.80187 -1.8539,7.63096 -1.87437,56.43559 -0.0193,45.93222 -0.20453,52.28693 -1.50978,51.78606 -6.811515,-2.61383 -20.820601,-0.93754 -30.96044,3.70463 -9.687608,4.43514 -17.466479,13.57047 -17.529778,20.5866 -0.03569,3.95618 3.871749,10.83691 7.388282,13.01025 1.797588,1.11097 5.02816,2.46145 7.179049,3.00108 5.788471,1.45223 18.043267,0.48942 25.187863,-1.97891 z M 119,172.20578 c 0,-10.78054 0.34927,-15.23411 1.25,-15.93872 0.6875,-0.5378 18.44228,-9.65791 39.45507,-20.26689 37.75948,-19.06411 38.23474,-19.26963 40.75,-17.62157 2.50089,1.63865 2.54493,1.88283 2.54493,14.11107 v 12.44356 l -41.23979,20.78338 c -22.68188,11.43087 -41.58188,20.93339 -42,21.11672 C 119.3421,187.01667 119,180.43427 119,172.20578 Z"
         id="path7" />
      <path
         style="fill:#6fc5eb"
         d="M 15.557521,479.76093 C 9.8746533,478.24647 2.6782165,470.75052 1.1746941,464.77949 c -1.69205408,-6.71975 -1.69205408,-410.839227 0,-417.558983 C 2.9193596,40.291812 9.9541619,33.58728 17.096259,32.04643 21.098144,31.183055 56.354743,30.960957 153,31.190308 L 283.5,31.5 287.9556,34 c 2.45057,1.375 5.82557,4.450076 7.5,6.833503 2.78573,3.965302 3.0742,5.143965 3.39509,13.872127 l 0.35069,9.538624 10.64931,-0.686047 c 20.63176,-1.329135 47.72145,2.380191 69.59458,9.529419 48.97801,16.008447 89.71871,51.604984 112.63426,98.412374 32.31367,66.00403 24.27875,143.88217 -20.94412,203 -24.20954,31.64805 -63.80737,57.81907 -102.72984,67.89626 -18.40933,4.76625 -40.70037,7.15748 -57.55718,6.17433 l -11.65162,-0.67956 -0.34838,9.47098 c -0.31834,8.65402 -0.611,9.84479 -3.39279,13.80449 -1.67443,2.38342 -5.04943,5.4585 -7.5,6.8335 l -4.4556,2.5 -132,0.15579 C 61.943984,480.76149 18.232314,480.47376 15.557521,479.76093 Z M 139.42857,457.42857 c 2.03797,-2.03797 2.00216,-5.29513 -0.0836,-7.59983 C 137.77912,448.09845 134.66712,448 81.536142,448 20.812398,448 21.75,447.91649 21.75,453.32491 21.75,459.2586 19.04785,459 81.051016,459 c 50.308604,0 56.985864,-0.17974 58.377554,-1.57143 z M 139,425 c 1.1,-1.1 2,-2.9 2,-4 0,-1.1 -0.9,-2.9 -2,-4 -1.95176,-1.95176 -3.33333,-2 -57.277494,-2 C 20.791884,415 22,414.87863 22,421 c 0,6.12137 -1.208116,6 59.722506,6 53.944164,0 55.325734,-0.0482 57.277494,-2 z m -0.22251,-32.5567 c 2.53843,-1.77799 2.87841,-5.16377 0.80354,-8.00217 -1.37048,-1.87481 -3.29655,-1.95051 -56.370246,-2.21571 -35.258845,-0.17618 -55.903301,0.0874 -57.607875,0.73545 -4.458502,1.69512 -5.15422,7.63565 -1.203205,10.27382 0.605163,0.40408 26.087668,0.74158 56.62779,0.75 48.654806,0.0134 55.802576,-0.17736 57.749996,-1.54139 z M 338.5,320.9627 c 10.91649,-3.33668 19.13155,-8.41839 28.08793,-17.37477 9.04577,-9.04577 14.01979,-17.1341 17.5805,-28.58793 3.44535,-11.08271 3.24075,-28.28827 -0.4697,-39.5 -3.57836,-10.81256 -8.88538,-19.456 -16.81406,-27.38467 -7.94217,-7.94218 -16.59392,-13.2489 -27.38467,-16.79693 -6.78818,-2.23198 -9.81773,-2.63763 -20,-2.67798 -6.76239,-0.0268 -13.85499,0.49459 -16.25,1.19456 L 299,191.07709 V 256 320.92291 l 3.75,0.97795 c 10.10492,2.63522 25.36969,2.23464 35.75,-0.93816 z M 96.777156,299.9667 c 8.613514,-2.97582 17.385184,-9.60487 20.082694,-15.17718 C 118.93766,280.49734 119,279.20022 119,240.26228 v -40.10627 l 41.60565,-21.078 C 183.48875,167.4851 202.38875,158 202.60565,158 202.82254,158 203,169.01386 203,182.47525 v 24.47525 l -2.5651,-0.97525 c -3.66478,-1.39335 -15.06957,-1.18301 -20.9349,0.3861 -6.50643,1.74062 -14.53912,5.85609 -18.89515,9.68074 -6.29356,5.52581 -9.27277,14.8429 -6.48266,20.27365 4.13455,8.04763 11.76047,11.19265 25.27319,10.42297 14.30888,-0.81503 26.22697,-6.67944 32.33969,-15.91305 l 2.76493,-4.17658 0.31896,-49.57454 c 0.17542,-27.266 0.0334,-51.91433 -0.31565,-54.77408 -1.11413,-9.12834 -6.94646,-15.25228 -15.2895,-16.05394 -4.78175,-0.45946 -6.15062,0.13783 -44.03413,19.21397 -21.50443,10.8285 -40.29866,20.63186 -41.76495,21.78524 -1.4663,1.15339 -3.49957,3.93244 -4.5184,6.17567 -1.72672,3.80187 -1.8539,7.63096 -1.87437,56.43559 -0.0193,45.93222 -0.20453,52.28693 -1.50978,51.78606 -6.811515,-2.61383 -20.820601,-0.93754 -30.96044,3.70463 -9.687608,4.43514 -17.466479,13.57047 -17.529778,20.5866 -0.03569,3.95618 3.871749,10.83691 7.388282,13.01025 1.797588,1.11097 5.02816,2.46145 7.179049,3.00108 5.788471,1.45223 18.043267,0.48942 25.187863,-1.97891 z M 119,172.20578 c 0,-10.78054 0.34927,-15.23411 1.25,-15.93872 0.6875,-0.5378 18.44228,-9.65791 39.45507,-20.26689 37.75948,-19.06411 38.23474,-19.26963 40.75,-17.62157 2.50089,1.63865 2.54493,1.88283 2.54493,14.11107 v 12.44356 l -41.23979,20.78338 c -22.68188,11.43087 -41.58188,20.93339 -42,21.11672 C 119.3421,187.01667 119,180.43427 119,172.20578 Z"
         id="path6" />
      <path
         style="fill:#f78578"
         d="M 304.25,448.26276 299,447.89548 v -63.55473 c 0,-57.80838 0.14445,-63.4993 1.59763,-62.94166 4.20832,1.61489 16.66945,2.77608 23.61185,2.20029 16.79408,-1.39289 29.99209,-7.6251 42.37845,-20.01145 9.04577,-9.04577 14.01979,-17.1341 17.5805,-28.58793 3.44535,-11.08271 3.24075,-28.28827 -0.4697,-39.5 -3.57836,-10.81256 -8.88538,-19.456 -16.81406,-27.38467 -11.52106,-11.52107 -26.29638,-18.35616 -42.60417,-19.70879 -7.01276,-0.58166 -19.45229,0.57094 -23.68287,2.19437 C 299.14446,191.15854 299,185.47404 299,127.73564 V 64.257306 l 10.75,-0.692573 c 20.73839,-1.336081 47.77415,2.357981 69.69527,9.522893 48.97801,16.008447 89.71871,51.604984 112.63426,98.412374 32.31367,66.00403 24.27875,143.88217 -20.94412,203 -6.55922,8.57459 -21.37638,23.71117 -30.13541,30.78508 -38.85742,31.38174 -86.85975,46.46788 -136.75,42.97768 z"
         id="path5" />
      <path
         style="fill:#a49fb0"
         d="M 307.25,448.26327 299,447.91912 v -63.56655 c 0,-60.13048 0.0946,-63.53 1.75,-62.89041 7.24597,2.79957 22.14429,3.2669 32.72131,1.0264 13.82824,-2.92919 29.57947,-12.541 38.0321,-23.20817 18.16825,-22.92822 20.45329,-53.28736 5.89919,-78.37676 -2.04308,-3.522 -7.0353,-9.65441 -11.09383,-13.62758 C 350.44272,191.7437 326.86459,184.82201 305.25,189.35138 L 299,190.66107 V 127.21429 63.767506 l 23.25,0.5096 c 19.91084,0.436411 24.97813,0.878707 35.28264,3.079626 C 437.80123,84.501135 497.66577,147.96793 509.5297,228.5 c 2.13164,14.46953 2.13164,40.53047 0,55 C 495.92041,375.87947 418.88851,445.02645 326,448.24375 c -5.775,0.20002 -14.2125,0.20881 -18.75,0.0195 z"
         id="path4" />
      <path
         style="fill:#f56757"
         d="M 307.75,448.26396 300,447.91587 V 384.48269 321.0495 l 2.75,1.0723 c 4.99603,1.94808 22.06093,2.22258 30.21482,0.48602 14.3424,-3.05454 29.97003,-12.51396 38.53859,-23.32743 18.16825,-22.92822 20.45329,-53.28736 5.89919,-78.37676 -5.78664,-9.97541 -16.6741,-19.96348 -27.68779,-25.40055 -12.1295,-5.9879 -21.20454,-7.87598 -34.21481,-7.11845 -5.5,0.32024 -11.2375,0.86716 -12.75,1.21539 L 300,190.23315 V 126.99879 63.764427 l 22.75,0.5135 c 19.33954,0.436522 24.55382,0.89842 34.78264,3.081166 80.25117,17.124936 140.1332,80.609347 151.99706,161.140907 2.13164,14.46953 2.13164,40.53047 0,55 C 495.92022,375.88076 418.91191,445.00754 326,448.24605 c -5.775,0.2013 -13.9875,0.20935 -18.25,0.0179 z"
         id="path3" />
      <path
         style="fill:#e75348"
         d="m 301.75,415.31067 c -1.39232,-0.36385 -1.75,-1.55362 -1.75,-5.82112 v -5.36381 l 3.25,0.39805 c 1.7875,0.21893 6.55126,0.61771 10.58613,0.88617 4.03488,0.26846 7.97238,1.01615 8.75,1.66152 1.72638,1.43277 1.85518,6.08721 0.21387,7.72852 -1.16582,1.16582 -17.06685,1.55158 -21.05,0.51067 z m 2,-38.03914 -3.75,-0.39226 v -5.44465 -5.44466 l 10.25,0.63777 c 6.98749,0.43478 10.80701,1.12229 12,2.16001 2.37957,2.06987 2.27157,6.86276 -0.18426,8.17708 -1.85423,0.99235 -10.39394,1.13536 -18.31574,0.30671 z M 431.64087,258.75 c -0.82465,-1.32041 -1.64935,-6.38152 -1.99611,-12.25 -1.16269,-19.67715 -9.20714,-40.65176 -22.14472,-57.73876 C 388.51652,163.6892 358.35198,147.21709 328,145.34822 c -10.51855,-0.64766 -14,-2.08994 -14,-5.79984 0,-5.82975 5.36924,-6.76212 23.3412,-4.05324 51.8675,7.81789 93.76871,49.06985 102.11456,100.53233 1.84972,11.40581 2.00476,22.11201 0.34424,23.77253 -2.02556,2.02556 -6.60647,1.43605 -8.15913,-1.05 z m 38.29245,0.66965 c -0.80236,-0.96677 -1.59875,-6.11111 -2.05124,-13.25 C 466.12342,218.423 456.54018,191.50979 440.31172,168.74203 432.8637,158.2928 416.7072,142.1363 406.25797,134.68828 383.55181,118.50372 355.5465,108.50841 329.5,107.29275 316.90078,106.70472 314,105.52932 314,101.01213 c 0,-4.583179 2.63454,-5.395833 15.16796,-4.678722 71.47734,4.089632 132.10696,56.839582 146.794,127.716052 2.72086,13.13028 3.89284,33.21564 2.06653,35.41621 -1.65788,1.99762 -6.42157,1.97054 -8.09517,-0.046 z"
         id="path2" />
    </g>
  </g>
</svg>
