<?xml version="1.0" encoding="UTF-8"?><svg id="Regular" xmlns="http://www.w3.org/2000/svg" viewBox="0 0 40.8 40.8"><path d="M20.66,31.44c-.32,0-.58,.26-.58,.58s.26,.58,.58,.58,.58-.26,.58-.58-.26-.58-.58-.58h0" fill="none" stroke="#029fe3" stroke-linecap="round" stroke-linejoin="round" stroke-width="2"/><line x1="20.66" y1="26.81" x2="20.66" y2="15.24" fill="none" stroke="#029fe3" stroke-linecap="round" stroke-linejoin="round" stroke-width="2"/><path d="M23.16,5.23c-.68-1.38-2.35-1.95-3.73-1.27-.55,.27-1,.72-1.27,1.27L3.55,35c-.57,1.16-.09,2.57,1.07,3.14,.32,.16,.68,.24,1.04,.24h30.02c1.3,0,2.35-1.05,2.35-2.35,0-.36-.08-.71-.24-1.04L23.16,5.23Z" fill="none" stroke="#029fe3" stroke-linecap="round" stroke-linejoin="round" stroke-width="2"/></svg>