<?xml version="1.0" encoding="UTF-8" standalone="no"?>
<!-- Created with Inkscape (http://www.inkscape.org/) -->

<svg
   version="1.1"
   id="svg1"
   width="580"
   height="580"
   viewBox="0 0 580 580"
   xmlns="http://www.w3.org/2000/svg"
   xmlns:svg="http://www.w3.org/2000/svg">
  <defs
     id="defs1" />
  <g
     id="g1">
    <g
       id="g2"
       style="display:inline">
      <path
         style="fill:#e0eefd"
         d="m 186,535.40991 c -1.925,-0.8315 -5.22459,-3.17638 -7.33242,-5.21086 -7.6171,-7.35202 -7.11082,-2.55757 -7.66758,-72.61144 l -0.5,-62.9124 -41.65914,-11.66306 c -22.91253,-6.41469 -42.937528,-12.49314 -44.500001,-13.50769 -3.351048,-2.1759 -5.401957,-4.79809 -7.014781,-8.96877 -0.86001,-2.22393 -1.194266,-23.81509 -1.25,-80.74334 L 76,202.08469 68.75,199.95194 C 53.293149,195.40496 44.567829,186.0751 42.486985,171.86927 41.122625,162.55485 42.997261,158.03616 60.126616,129.35016 68.939174,114.59204 76.295572,102.3711 76.474166,102.1925 76.65276,102.01391 123.30663,88.561568 180.14944,72.298417 267.82831,47.212837 284.48564,42.728259 290,42.723833 c 5.53195,-0.0044 21.89032,4.397586 109.83872,29.557526 56.83629,16.259509 103.48775,29.711771 103.66989,29.893921 1.139,1.139 30.74663,51.46958 32.08673,54.54484 2.50591,5.75058 2.34024,17.60951 -0.32848,23.51322 -4.73681,10.47873 -11.43541,15.99576 -24.01686,19.78052 l -7.25,2.18094 -0.006,76.6526 c -0.004,51.9872 -0.35487,77.93973 -1.09109,80.6526 -1.21788,4.48776 -5.78228,9.79301 -9.88899,11.49406 -1.4977,0.62037 -20.90112,6.22228 -43.11871,12.4487 L 409.5,394.76352 409,457.63176 408.5,520.5 l -2.28834,3.68007 c -2.84882,4.58143 -8.52662,9.63576 -12.85681,11.44503 -2.71987,1.13643 -20.68403,1.36811 -103.57273,1.33576 C 202.56364,536.92682 189.04406,536.72477 186,535.40991 Z"
         id="path8" />
      <path
         style="fill:#acccd8"
         d="m 217.5,502.17073 c -4.20526,-2.62542 -12.47687,-11.72499 -12.61515,-13.87789 -0.24411,-3.80052 0.36916,-5.87394 2.37889,-8.04284 2.75438,-2.97251 8.48427,-3.02266 12.19132,-0.10669 l 2.72477,2.14331 10.73862,-10.70532 c 8.87458,-8.84706 11.27968,-10.7207 13.85571,-10.79394 6.05178,-0.17207 10.30399,4.84526 8.86714,10.46264 -0.79889,3.12325 -29.54944,31.49767 -32.6413,32.21426 -1.56987,0.36385 -3.61616,-0.11742 -5.5,-1.29353 z m 58.57673,-9.75962 c -3.97615,-3.34571 -4.23617,-8.34258 -0.62218,-11.95656 L 277.90909,478 h 46.37114 46.37114 l 2.17432,2.31445 c 2.13823,2.27605 2.83224,6.80742 1.55313,10.14075 C 372.71291,494.79648 370.44019,495 323.62639,495 H 279.15345 Z M 212.3019,446.75 c -8.44765,-7.95037 -9.78581,-13.06786 -4.67308,-17.87102 3.18364,-2.99087 8.50967,-3.03696 11.6352,-0.10068 l 2.31869,2.17831 9.45865,-9.5495 c 5.20225,-5.25222 10.72899,-10.221 12.28163,-11.04172 C 248.98583,407.372 256,411.76892 256,418.31213 c 0,2.58481 -2.28736,5.34701 -15.20808,18.36514 C 226.4209,451.15664 225.37184,452 221.73206,452 c -3.27156,0 -4.69209,-0.79084 -9.43016,-5.25 z m 66.0551,-3.74158 c -5.42003,-2.18725 -6.90459,-9.09755 -2.94379,-13.70266 l 2.4132,-2.80576 h 46.00594 46.00593 l 2.58086,2.42431 c 3.81137,3.58019 3.59435,9.04511 -0.49587,12.4868 L 368.84655,444 324.67327,443.9366 c -24.2953,-0.0349 -45.13762,-0.45255 -46.31627,-0.92819 z M 211.40741,394.59259 C 205.96427,389.14945 205,387.65683 205,384.67438 c 0,-4.89253 0.8091,-6.5243 4.07152,-8.21137 4.00381,-2.07044 6.40117,-1.8255 9.62272,0.98317 l 2.80576,2.44618 10.54622,-10.47598 c 8.5184,-8.46166 11.24947,-10.59011 14.20361,-11.0695 3.15247,-0.51157 4.07796,-0.17294 6.70378,2.45288 2.16103,2.16104 3.04639,4.0029 3.04639,6.3376 0,2.91141 -1.76397,5.05518 -15.28571,18.57693 C 226.35372,400.07485 225.19817,401 221.62169,401 c -3.34641,0 -4.58189,-0.77502 -10.21428,-6.40741 z M 127,382.40634 c -22.275,-6.28395 -41.625,-12.24996 -43,-13.2578 -1.375,-1.00784 -3.5125,-3.32011 -4.75,-5.13837 L 77,360.70423 V 281.44952 202.1948 l -7.237898,-2.19844 c -3.980844,-1.20915 -8.868998,-3.03057 -10.862565,-4.04761 -5.370306,-2.73973 -12.482724,-11.17777 -14.473312,-17.17086 -2.233152,-6.7234 -2.060658,-16.55522 0.387554,-22.08981 4.004303,-9.05239 31.415833,-53.8351 33.528085,-54.77543 C 79.528839,101.38423 126.4,87.862926 182.5,71.865302 259.98902,49.76833 285.82167,42.775829 290,42.766707 c 4.22769,-0.0092 29.21123,6.750286 108,29.220349 56.375,16.077796 103.25083,29.629194 104.16851,30.114224 1.68966,0.89304 29.502,46.76038 32.92766,54.30337 2.35514,5.18581 2.50863,16.46409 0.3118,22.91141 -1.88144,5.52173 -9.19596,14.02497 -14.30751,16.63269 -1.99356,1.01704 -6.88172,2.83846 -10.86256,4.04761 L 503,202.1948 v 79.25472 79.25471 l -2.25,3.30594 c -1.2375,1.81826 -3.38788,4.1483 -4.77863,5.17785 -2.16871,1.60548 -82.29393,24.80527 -85.68712,24.81021 -0.93503,0.001 -1.28138,-11.94718 -1.5,-51.74823 L 408.5,290.5 l -2.83763,-4.8276 c -3.02034,-5.13844 -9.49144,-9.97455 -15.62785,-11.67932 -4.79537,-1.33221 -195.27367,-1.33221 -200.06904,0 -6.13641,1.70477 -12.60751,6.54088 -15.62785,11.67932 L 171.5,290.5 l -0.28425,51.75 c -0.2645,48.15334 -0.4035,51.74415 -2,51.66585 C 168.27209,393.86957 149.275,388.69029 127,382.40634 Z m 151.32874,9.15677 c -6.01371,-2.6555 -7.11963,-8.92606 -2.40566,-13.64003 L 278.84615,375 h 44.62659 c 46.97783,0 49.23956,0.20192 50.90608,4.5448 1.4254,3.71454 0.60597,8.12087 -1.95841,10.53089 l -2.57958,2.42431 -44.17042,0.23173 c -36.07059,0.18923 -44.75195,-0.0251 -47.34167,-1.16862 z m -66.50733,-48.32863 c -5.59517,-5.45305 -6.95938,-7.38244 -7.03226,-9.94563 -0.23662,-8.32226 8.79956,-12.26501 14.75029,-6.43597 1.93923,1.89958 2.08127,1.80204 13.05701,-8.96621 C 242.08817,308.57439 244.16008,307 246.92337,307 c 4.45475,0 9.07663,4.6528 9.07663,9.13736 0,2.91141 -1.76397,5.05518 -15.28571,18.57693 -18.78153,18.78152 -18.46109,18.68702 -28.89288,8.52019 z m 63.63314,-4.68903 c -2.69794,-2.69793 -3.27157,-7.89847 -1.17275,-10.63211 C 277.19087,324.12439 278.80231,324 324.97971,324 h 45.1112 l 2.45454,2.45455 C 374.24012,328.14921 375,330.02076 375,332.5 c 0,2.47924 -0.75988,4.35079 -2.45455,6.04545 L 370.09091,341 H 324 277.90909 Z"
         id="path7" />
      <path
         style="fill:#9dbacd"
         d="M 211.29302,496.55035 C 205.9315,491.05539 205,489.56844 205,486.5049 c 0,-7.40373 7.80102,-10.91897 14.16885,-6.38467 l 2.97759,2.12024 10.77734,-10.62024 C 242.55135,462.13301 244.08097,461 247.26166,461 c 2.7738,0 4.15218,0.70311 6.23804,3.18202 4.52989,5.38346 3.41819,7.39164 -13.32369,24.06798 -13.99044,13.93568 -15.02278,14.75 -18.69897,14.75 -3.46867,0 -4.57406,-0.70005 -10.18402,-6.44965 z m 65.93594,-3.21964 c -2.15302,-0.86627 -4.31828,-6.12667 -3.6378,-8.8379 0.34848,-1.38844 1.76871,-3.41732 3.15608,-4.50863 2.42959,-1.91112 4.15443,-1.98418 46.84057,-1.98418 30.34999,0 45.0861,0.34993 46.75487,1.11027 4.67126,2.12837 5.91432,8.022 2.58474,12.25487 L 370.85484,494 324.67742,493.921 c -25.39758,-0.0434 -46.74939,-0.30907 -47.44846,-0.59034 z M 211.90277,445.33594 C 206.04055,439.67644 205,438.16215 205,435.29048 c 0,-7.22383 8.49412,-10.83605 14.45506,-6.14717 l 2.72477,2.14331 10.67642,-10.64331 C 241.89928,411.62831 244.01486,410 246.68454,410 c 4.55627,0 6.19635,0.86899 7.91587,4.19417 2.70159,5.22431 1.24568,7.55295 -14.46897,23.14224 -18.15982,18.01495 -17.92378,17.94806 -28.22867,7.99953 z m 65.32619,-3.00523 C 275.73549,441.72981 273,436.7463 273,434.62639 c 0,-0.81012 1.165,-2.85747 2.58889,-4.54966 L 278.17779,427 h 45.95656 45.95656 l 2.45454,2.45455 C 374.09269,431.00178 375,433.05163 375,435 c 0,1.94837 -0.90731,3.99822 -2.45455,5.54545 L 370.09091,443 324.29545,442.921 c -25.1875,-0.0434 -46.36742,-0.30907 -47.06649,-0.59034 z m -65.40137,-48.1583 c -7.73717,-7.73716 -8.64856,-10.94388 -4.48585,-15.78331 2.9526,-3.43261 7.52535,-3.60282 11.80412,-0.43938 l 3.08799,2.28305 10.63307,-10.51606 c 5.8482,-5.78382 11.62309,-10.80938 12.8331,-11.1679 5.20992,-1.54368 11.17855,4.81456 9.77375,10.41173 -0.71709,2.8571 -25.49752,28.42884 -29.67411,30.62169 -4.82766,2.53469 -6.7857,1.77656 -13.97207,-5.40982 z M 127.58143,382.46514 C 105.62621,376.24595 86.554403,370.5643 85.199631,369.83925 83.844859,369.1142 81.558217,366.97651 80.118205,365.08883 L 77.5,361.65668 77,281.68075 l -0.5,-79.97593 -6.841024,-1.8738 c -3.762563,-1.03059 -8.176944,-2.56463 -9.809736,-3.40898 -5.049943,-2.61143 -10.885621,-8.56215 -13.590647,-13.85858 -3.222357,-6.30937 -4.203101,-17.92029 -2.038015,-24.12784 2.345866,-6.72586 31.888641,-55.53686 34.196953,-56.5007 C 79.562889,101.45668 126.49202,88.000676 182.70449,72.032694 257.57703,50.764047 286.30377,43 290.12459,43 c 3.82199,0 32.49141,7.752221 107.29551,29.012747 56.14394,15.957011 103.02072,29.414703 104.17062,29.905983 2.37089,1.01295 32.46457,51.24592 34.42814,57.46814 1.89448,6.00333 0.7983,17.12171 -2.28503,23.17659 -2.66705,5.23742 -8.52938,11.25048 -13.42409,13.76927 -1.54536,0.79523 -6.07224,2.41474 -10.05974,3.59892 l -7.25,2.15304 v 78.55653 c 0,86.89944 0.30351,82.73729 -6.40655,87.8553 -2.21355,1.68835 -15.15846,5.7555 -44.37958,13.94355 C 429.5239,388.79803 410.51852,394 409.97969,394 409.35296,394 409,375.69065 409,343.17931 v -50.82068 l -2.75,-5.42245 c -3.10439,-6.12123 -9.21375,-11.31079 -15.21925,-12.9279 -2.61398,-0.70387 -36.38233,-0.95817 -103.20795,-0.77722 L 188.5,273.5 l -4,2.15842 c -5.23641,2.82559 -8.90761,6.79336 -11.41909,12.34158 -1.96243,4.33531 -2.03779,6.35738 -2.05895,55.25 -0.0206,47.70215 -0.12706,50.74318 -1.77196,50.63638 -0.9625,-0.0625 -19.71336,-5.20205 -41.66857,-11.42124 z m 148.34165,6.61178 C 274.31538,387.46923 273,385.42188 273,384.52726 c 0,-2.47165 2.72185,-7.20655 4.5448,-7.90608 C 278.43513,376.27953 299.62223,376 324.62724,376 h 45.46367 l 2.45454,2.45455 C 374.09269,380.00178 375,382.05163 375,384 c 0,1.94837 -0.90731,3.99822 -2.45455,5.54545 L 370.09091,392 H 324.46853 278.84615 Z M 218.5,349.05352 c -1.1,-0.45084 -4.5875,-3.53891 -7.75,-6.86237 -4.74433,-4.98582 -5.75,-6.65226 -5.75,-9.52802 0,-2.68928 0.72678,-4.09689 3.18202,-6.16283 3.64556,-3.06754 7.88731,-2.87541 11.27333,0.51061 1.94974,1.94973 2.02996,1.89563 12.52702,-8.44842 6.40145,-6.30812 11.71036,-10.69825 13.47188,-11.14036 5.59438,-1.4041 11.50314,4.62721 10.08167,10.29077 -0.69558,2.7714 -21.55041,24.73742 -27.93596,29.42445 -4.03695,2.96315 -5.69407,3.31208 -9.09996,1.91617 z m 57.85576,-10.42393 c -3.64576,-3.13596 -3.8672,-8.98728 -0.44498,-11.75843 C 278.09419,325.10314 280.77459,325 324.5382,325 h 46.31664 l 2.07258,2.63486 c 3.32958,4.23287 2.08652,10.1265 -2.58474,12.25487 C 368.67371,340.65016 353.91667,341 323.50871,341 h -44.39718 z"
         id="path6" />
      <path
         style="fill:#d19d6f"
         d="m 212.38613,496.81526 c -7.01048,-6.7318 -8.23735,-9.34602 -6.43182,-13.70495 2.18333,-5.27103 8.26965,-6.55169 12.73993,-2.68068 l 2.80576,2.42964 11.09645,-10.92964 C 241.77625,462.88784 244.21431,461 246.71159,461 c 3.7202,0 7.88911,3.13085 8.51272,6.39305 0.828,4.33141 -1.74446,7.85868 -15.94039,21.85695 -17.08786,16.84994 -17.19684,16.88059 -26.89779,7.56526 z m -0.55854,-51.64285 C 206.21984,439.56466 205,437.76991 205,435.12696 c 0,-6.80182 7.82363,-10.41333 13.27287,-6.12696 1.39842,1.1 2.89697,2 3.33009,2 0.43313,0 5.5824,-4.725 11.44283,-10.5 9.41211,-9.27491 11.06079,-10.5 14.13045,-10.5 4.72307,0 7.82376,3.36138 7.82376,8.48153 0,3.60135 -0.8642,4.72759 -13.25,17.26778 -19.09028,19.32823 -19.79527,19.55024 -29.92241,9.4231 z M 218.5,400.07506 c -1.1,-0.46269 -4.5875,-3.56045 -7.75,-6.88391 -4.47995,-4.70798 -5.75,-6.73175 -5.75,-9.16237 0,-6.96417 8.62123,-10.47436 14.45506,-5.88547 l 2.72477,2.14331 10.67642,-10.64331 C 242.60413,359.92565 243.85738,359 247.26633,359 c 4.95523,0 7.73367,2.7888 7.73367,7.7625 0,3.51645 -0.9646,4.72252 -14.75,18.44242 -14.63366,14.56414 -17.62131,16.60674 -21.75,14.87014 z M 127.58143,382.46514 C 105.62621,376.24595 86.554403,370.5643 85.199631,369.83925 83.844859,369.1142 81.558217,366.97651 80.118205,365.08883 L 77.5,361.65668 77,281.68075 l -0.5,-79.97593 -6.841024,-1.8738 c -3.762563,-1.03059 -8.176944,-2.56463 -9.809736,-3.40898 -5.049943,-2.61143 -10.885621,-8.56215 -13.590647,-13.85858 -3.222357,-6.30937 -4.203101,-17.92029 -2.038015,-24.12784 2.345866,-6.72586 31.888641,-55.53686 34.196953,-56.5007 C 79.562889,101.45668 126.49202,88.000676 182.70449,72.032694 257.57703,50.764047 286.30377,43 290.12459,43 c 3.82199,0 32.49141,7.752221 107.29551,29.012747 56.14394,15.957011 103.02072,29.414703 104.17062,29.905983 2.37089,1.01295 32.46457,51.24592 34.42814,57.46814 1.89448,6.00333 0.7983,17.12171 -2.28503,23.17659 -2.66705,5.23742 -8.52938,11.25048 -13.42409,13.76927 -1.54536,0.79523 -6.07224,2.41474 -10.05974,3.59892 l -7.25,2.15304 v 78.55653 c 0,86.89944 0.30351,82.73729 -6.40655,87.8553 -2.21355,1.68835 -15.15846,5.7555 -44.37958,13.94355 C 429.5239,388.79803 410.77,394 410.53854,394 c -0.23146,0 -0.58762,-22.6125 -0.79146,-50.25 -0.28892,-39.17242 -0.67125,-51.08219 -1.7343,-54.02497 -1.84176,-5.09844 -7.32991,-11.31387 -12.37023,-14.00952 L 391.5,273.5 H 290 188.5 l -4.09468,2.19109 c -4.80051,2.56877 -9.71025,7.87109 -12.12653,13.09614 -1.53558,3.32058 -1.75355,9.07361 -2.06357,54.46277 -0.26172,38.31982 -0.63669,50.72217 -1.53092,50.63638 -0.65137,-0.0625 -19.14766,-5.20205 -41.10287,-11.42124 z m 83.7519,-39.79847 c -7.16236,-7.16236 -8.07036,-10.53586 -4.08333,-15.17075 2.92393,-3.39905 7.7454,-3.61477 11.91366,-0.53305 l 3.07019,2.2699 10.63307,-10.48163 c 5.8482,-5.7649 11.44573,-10.7628 12.43898,-11.10645 0.99324,-0.34365 3.33972,0.0161 5.21441,0.79935 3.47625,1.45247 5.1936,4.82676 4.60904,9.05596 -0.15204,1.1 -6.87522,8.6375 -14.94039,16.75 -13.92758,14.0093 -14.86126,14.75 -18.59312,14.75 -3.49197,0 -4.6339,-0.70472 -10.26251,-6.33333 z"
         id="path5" />
      <path
         style="fill:#b98959"
         d="m 212.38613,496.81526 c -7.01048,-6.7318 -8.23735,-9.34602 -6.43182,-13.70495 2.18333,-5.27103 8.26965,-6.55169 12.73993,-2.68068 l 2.80576,2.42964 11.09645,-10.92964 C 241.77625,462.88784 244.21431,461 246.71159,461 c 3.7202,0 7.88911,3.13085 8.51272,6.39305 0.828,4.33141 -1.74446,7.85868 -15.94039,21.85695 -17.08786,16.84994 -17.19684,16.88059 -26.89779,7.56526 z m -0.55854,-51.64285 C 206.21984,439.56466 205,437.76991 205,435.12696 c 0,-6.80182 7.82363,-10.41333 13.27287,-6.12696 1.39842,1.1 2.89697,2 3.33009,2 0.43313,0 5.5824,-4.725 11.44283,-10.5 9.41211,-9.27491 11.06079,-10.5 14.13045,-10.5 4.72307,0 7.82376,3.36138 7.82376,8.48153 0,3.60135 -0.8642,4.72759 -13.25,17.26778 -19.09028,19.32823 -19.79527,19.55024 -29.92241,9.4231 z M 218.5,400.07506 c -1.1,-0.46269 -4.5875,-3.56045 -7.75,-6.88391 -4.47995,-4.70798 -5.75,-6.73175 -5.75,-9.16237 0,-6.96417 8.62123,-10.47436 14.45506,-5.88547 l 2.72477,2.14331 10.67642,-10.64331 C 242.60413,359.92565 243.85738,359 247.26633,359 c 4.95523,0 7.73367,2.7888 7.73367,7.7625 0,3.51645 -0.9646,4.72252 -14.75,18.44242 -14.63366,14.56414 -17.62131,16.60674 -21.75,14.87014 z M 127.69398,381.97189 C 91.531677,371.847 85.473905,369.87759 82.82082,367.38342 76.767516,361.69271 77,365.18422 77,279.96473 c 0,-73.922 0.09361,-78.07027 1.75,-77.55301 1.579693,0.49331 48.51591,13.68417 111.25,31.26548 12.925,3.62225 25.3,7.01689 27.5,7.54365 9.31754,2.23095 21.69424,-1.48176 28.87399,-8.66151 1.89246,-1.89246 9.7336,-13.93 17.42474,-26.75009 22.06036,-36.77159 25.50762,-43.00188 24.2301,-43.79143 C 287.1989,161.50489 131.52638,117.65397 81.5,103.84133 c -3.438786,-0.94947 -3.719393,-1.22137 -2,-1.93791 C 86.597673,98.945507 286.64415,43 290.12318,43 c 3.28108,0 110.97295,30.035431 206.70097,57.64922 2.92829,0.8447 5.12636,1.7336 4.88462,1.97535 -0.24175,0.24174 -47.52472,13.62472 -105.07328,29.73994 -57.54856,16.11522 -104.89058,29.55725 -105.2045,29.87117 -0.92387,0.92386 34.87029,61.56853 40.63759,68.85072 1.56218,1.97252 5.67333,5.10789 9.13588,6.96748 5.67011,3.04519 7.0903,3.37871 14.29554,3.35718 7.32445,-0.0219 13.78441,-1.65562 76.5,-19.347 37.675,-10.6277 69.0625,-19.53795 69.75,-19.80056 1.93791,-0.74025 1.8141,154.48235 -0.12684,159.01862 -3.29682,7.70516 -4.22354,8.09456 -49.33978,20.73169 L 410.5,393.7174 410,342.6087 409.5,291.5 l -2.91129,-5.25433 c -1.6012,-2.88988 -4.41388,-6.40042 -6.25039,-7.80119 -7.50796,-5.7266 -1.79379,-5.44634 -110.5562,-5.42252 -94.95901,0.0208 -100.49562,0.11895 -104.30431,1.84912 -4.95956,2.25297 -9.84709,7.03637 -12.76643,12.49447 -2.17841,4.07282 -2.21883,4.89603 -2.71138,55.22292 l -0.5,51.08848 z m 83.63935,-39.30522 c -7.16236,-7.16236 -8.07036,-10.53586 -4.08333,-15.17075 2.92393,-3.39905 7.7454,-3.61477 11.91366,-0.53305 l 3.07019,2.2699 10.63307,-10.48163 c 5.8482,-5.7649 11.44573,-10.7628 12.43898,-11.10645 0.99324,-0.34365 3.33972,0.0161 5.21441,0.79935 3.47625,1.45247 5.1936,4.82676 4.60904,9.05596 -0.15204,1.1 -6.87522,8.6375 -14.94039,16.75 -13.92758,14.0093 -14.86126,14.75 -18.59312,14.75 -3.49197,0 -4.6339,-0.70472 -10.26251,-6.33333 z"
         id="path4" />
      <path
         style="fill:#4ab491"
         d="m 212.38613,496.81526 c -7.01048,-6.7318 -8.23735,-9.34602 -6.43182,-13.70495 2.18333,-5.27103 8.26965,-6.55169 12.73993,-2.68068 l 2.80576,2.42964 11.09645,-10.92964 C 241.77625,462.88784 244.21431,461 246.71159,461 c 3.7202,0 7.88911,3.13085 8.51272,6.39305 0.828,4.33141 -1.74446,7.85868 -15.94039,21.85695 -17.08786,16.84994 -17.19684,16.88059 -26.89779,7.56526 z m -0.55854,-51.64285 C 206.21984,439.56466 205,437.76991 205,435.12696 c 0,-6.80182 7.82363,-10.41333 13.27287,-6.12696 1.39842,1.1 2.89697,2 3.33009,2 0.43313,0 5.5824,-4.725 11.44283,-10.5 9.41211,-9.27491 11.06079,-10.5 14.13045,-10.5 4.72307,0 7.82376,3.36138 7.82376,8.48153 0,3.60135 -0.8642,4.72759 -13.25,17.26778 -19.09028,19.32823 -19.79527,19.55024 -29.92241,9.4231 z M 218.5,400.07506 c -1.1,-0.46269 -4.5875,-3.56045 -7.75,-6.88391 -4.47995,-4.70798 -5.75,-6.73175 -5.75,-9.16237 0,-6.96417 8.62123,-10.47436 14.45506,-5.88547 l 2.72477,2.14331 10.67642,-10.64331 C 242.60413,359.92565 243.85738,359 247.26633,359 c 4.95523,0 7.73367,2.7888 7.73367,7.7625 0,3.51645 -0.9646,4.72252 -14.75,18.44242 -14.63366,14.56414 -17.62131,16.60674 -21.75,14.87014 z m -7.16667,-57.40839 c -7.16236,-7.16236 -8.07036,-10.53586 -4.08333,-15.17075 2.92393,-3.39905 7.7454,-3.61477 11.91366,-0.53305 l 3.07019,2.2699 10.63307,-10.48163 c 5.8482,-5.7649 11.44573,-10.7628 12.43898,-11.10645 0.99324,-0.34365 3.33972,0.0161 5.21441,0.79935 3.47625,1.45247 5.1936,4.82676 4.60904,9.05596 -0.15204,1.1 -6.87522,8.6375 -14.94039,16.75 -13.92758,14.0093 -14.86126,14.75 -18.59312,14.75 -3.49197,0 -4.6339,-0.70472 -10.26251,-6.33333 z m 70.37049,-70.29619 C 281.31672,271.98338 281,250.50292 281,224.63613 v -47.03054 l 4.17834,-7.3028 C 287.47643,166.28626 289.64617,163 290,163 c 0.35383,0 2.52803,3.29405 4.83157,7.32011 l 4.18824,7.3201 -0.2599,47.4299 L 298.5,272.5 l -8.04618,0.28715 c -4.42541,0.15793 -8.36291,-0.0296 -8.75,-0.41667 z M 184.14718,132.17585 C 111.49716,111.7607 79.369492,102.32403 80.647177,101.77541 86.342055,99.330134 287.04545,43 290.06307,43 c 3.03255,0 203.65575,56.341681 209.31137,58.78161 1.30917,0.5648 -29.75207,9.65913 -103,30.15709 C 338.6935,148.08033 291.05,161.39818 290.5,161.53392 c -0.55,0.13574 -48.40877,-13.07539 -106.35282,-29.35807 z"
         id="path3" />
      <path
         style="fill:#a47449"
         d="M 281.70382,272.37048 C 281.31672,271.98338 281,250.50292 281,224.63613 v -47.03054 l 4.17834,-7.3028 C 287.47643,166.28626 289.64617,163 290,163 c 0.35383,0 2.52803,3.29405 4.83157,7.32011 l 4.18824,7.3201 -0.2599,47.4299 L 298.5,272.5 l -8.04618,0.28715 c -4.42541,0.15793 -8.36291,-0.0296 -8.75,-0.41667 z M 184.14718,132.17585 C 111.49716,111.7607 79.369492,102.32403 80.647177,101.77541 86.342055,99.330134 287.04545,43 290.06307,43 c 3.03255,0 203.65575,56.341681 209.31137,58.78161 1.30917,0.5648 -29.75207,9.65913 -103,30.15709 C 338.6935,148.08033 291.05,161.39818 290.5,161.53392 c -0.55,0.13574 -48.40877,-13.07539 -106.35282,-29.35807 z"
         id="path2" />
    </g>
  </g>
</svg>
