<?xml version="1.0" encoding="UTF-8" standalone="no"?>
<!-- Created with Inkscape (http://www.inkscape.org/) -->

<svg
   version="1.1"
   id="svg1"
   width="5333.3335"
   height="5333.3335"
   viewBox="0 0 5333.3335 5333.3335"
   xmlns="http://www.w3.org/2000/svg"
   xmlns:svg="http://www.w3.org/2000/svg">
  <defs
     id="defs1" />
  <g
     id="g1">
    <g
       id="g2"
       style="display:inline">
      <path
         style="fill:#f6f6f6"
         d="m 630.00002,4541.7854 c -46.31593,-9.9119 -82.58489,-46.6482 -91.93379,-93.1186 -1.92314,-9.5593 -2.10589,-30.1836 -1.76032,-198.6667 l 0.38561,-188 3.08177,-9.9897 c 7.361,-23.8609 22.05413,-45.8911 40.40057,-60.5746 11.09791,-8.8822 31.8385,-19.279 45.82616,-22.9717 9.05782,-2.3912 69.27605,-2.464 2040.00008,-2.464 1970.724,0 2030.9422,0.073 2040,2.464 13.9877,3.6927 34.7283,14.0895 45.8262,22.9717 18.3464,14.6835 33.0396,36.7137 40.4006,60.5746 l 3.0817,9.9897 0.3856,188 c 0.3456,168.4831 0.1629,189.1074 -1.7603,198.6667 -9.4392,46.9192 -45.954,83.5685 -92.8775,93.2196 -9.356,1.9243 -191.8441,2.104 -2036.0001,2.005 -1794.1422,-0.096 -2026.78993,-0.337 -2035.05628,-2.106 z M 2082.595,2917.6668 l -4.5949,-5 5,4.5948 c 4.6539,4.2769 5.613,5.4052 4.5949,5.4052 -0.2229,0 -2.4729,-2.25 -5,-5 z m -1017.2616,0.3333 c 1.7223,-1.8333 3.4315,-3.3333 3.7981,-3.3333 0.3667,0 -0.7425,1.5 -2.4648,3.3333 -1.7223,1.8333 -3.4315,3.3333 -3.7982,3.3333 -0.3666,0 0.7425,-1.5 2.4649,-3.3333 z m 3203.83,-248.3334 c -1.6585,-2.1147 -1.6113,-2.1619 0.5034,-0.5034 2.221,1.7419 2.9273,2.8368 1.8299,2.8368 -0.2769,0 -1.3269,-1.05 -2.3333,-2.3334 z m -8,-8 c -1.6585,-2.1147 -1.6113,-2.1619 0.5034,-0.5034 2.221,1.7419 2.9273,2.8368 1.8299,2.8368 -0.2769,0 -1.3269,-1.05 -2.3333,-2.3334 z m -1009.1633,0.4966 c 0,-0.2768 1.05,-1.3268 2.3333,-2.3333 2.1148,-1.6585 2.1619,-1.6113 0.5034,0.5034 -1.7418,2.221 -2.8367,2.9273 -2.8367,1.8299 z m -1626.6667,-152 c 0,-0.2768 1.05,-1.3268 2.3333,-2.3333 2.1148,-1.6585 2.1619,-1.6113 0.5034,0.5034 -1.7418,2.221 -2.8367,2.9273 -2.8367,1.8299 z m 2061.1633,-259.1632 c -1.6585,-2.1148 -1.6113,-2.1619 0.5034,-0.5034 1.2833,1.0064 2.3333,2.0564 2.3333,2.3333 0,1.0974 -1.0949,0.3911 -2.8367,-1.8299 z m 138.8368,1.8299 c 0,-0.2769 1.05,-1.3269 2.3333,-2.3333 2.1147,-1.6585 2.1619,-1.6114 0.5034,0.5034 -1.7418,2.221 -2.8367,2.9273 -2.8367,1.8299 z"
         id="path15" />
      <path
         style="fill:#fdebce"
         d="m 3755.6668,2368.4504 c 0.9166,-0.3699 2.4166,-0.3699 3.3333,0 0.9167,0.3698 0.1667,0.6725 -1.6667,0.6725 -1.8333,0 -2.5833,-0.3027 -1.6666,-0.6725 z M 2267.83,2003.0001 c -1.6585,-2.1148 -1.6113,-2.1619 0.5034,-0.5034 2.221,1.7418 2.9273,2.8367 1.8299,2.8367 -0.2768,0 -1.3268,-1.05 -2.3333,-2.3333 z m 793.5034,1.8299 c 0,-0.2769 1.05,-1.3269 2.3334,-2.3333 2.1147,-1.6585 2.1619,-1.6114 0.5034,0.5034 -1.7419,2.221 -2.8368,2.9273 -2.8368,1.8299 z"
         id="path14" />
      <path
         style="fill:#d2e4f2"
         d="m 1028.6594,3483.3334 c 0,-265.4666 0.1533,-373.8679 0.3406,-240.8916 0.1873,132.9763 0.1873,350.1763 0,482.6667 -0.1873,132.4904 -0.3406,23.6916 -0.3406,-241.7751 z m 3274.6683,-126.6666 c 0,-335.1334 0.1526,-472.0344 0.3391,-304.2244 0.1865,167.8099 0.1865,442.0099 0,609.3333 -0.1865,167.3234 -0.3391,30.0244 -0.3391,-305.1089 z M 1143.75,2880.4226 c 0.9625,-0.3852 2.1125,-0.3378 2.5556,0.1053 0.443,0.443 -0.3445,0.7582 -1.75,0.7003 -1.5533,-0.064 -1.8692,-0.38 -0.8056,-0.8056 z m 860.0001,0 c 0.9625,-0.3852 2.1125,-0.3378 2.5555,0.1053 0.4431,0.443 -0.3444,0.7582 -1.75,0.7003 -1.5532,-0.064 -1.8692,-0.38 -0.8055,-0.8056 z m 1244.25,-214.4225 c 1.7223,-1.8334 3.4315,-3.3334 3.7982,-3.3334 0.3666,0 -0.7425,1.5 -2.4649,3.3334 -1.7223,1.8333 -3.4315,3.3333 -3.7981,3.3333 -0.3667,0 0.7425,-1.5 2.4648,-3.3333 z m 1017.1633,-0.3334 c -1.6585,-2.1147 -1.6113,-2.1619 0.5034,-0.5034 1.2833,1.0065 2.3333,2.0565 2.3333,2.3334 0,1.0974 -1.0949,0.391 -2.8367,-1.83 z m -2114.4967,-438.17 c 0,-0.2769 1.05,-1.3269 2.3334,-2.3334 2.1147,-1.6585 2.1619,-1.6113 0.5034,0.5034 -1.7419,2.221 -2.8368,2.9273 -2.8368,1.83 z m 1027.83,-1.83 c -1.6585,-2.1147 -1.6113,-2.1619 0.5034,-0.5034 2.221,1.7419 2.9273,2.8368 1.8299,2.8368 -0.2769,0 -1.3269,-1.05 -2.3333,-2.3334 z M 2161.3334,2216.83 c 0,-0.2769 1.05,-1.3269 2.3333,-2.3333 2.1148,-1.6585 2.1619,-1.6114 0.5034,0.5034 -1.7418,2.221 -2.8367,2.9273 -2.8367,1.8299 z m 1006.4966,-1.8299 c -1.6585,-2.1148 -1.6113,-2.1619 0.5034,-0.5034 2.221,1.7418 2.9273,2.8367 1.83,2.8367 -0.2769,0 -1.3269,-1.05 -2.3334,-2.3333 z"
         id="path13" />
      <path
         style="fill:#fcd595"
         d="m 2665.0834,1736.4226 c 0.9625,-0.3852 2.1125,-0.3378 2.5556,0.1052 0.443,0.4431 -0.3445,0.7582 -1.75,0.7003 -1.5533,-0.064 -1.8692,-0.3799 -0.8056,-0.8055 z m -509.9779,-496.0892 c 62.9413,-0.1915 165.5413,-0.1915 228,10e-5 62.4587,0.1916 10.9612,0.3484 -114.4388,0.3483 -125.4,0 -176.5025,-0.1568 -113.5612,-0.3484 z m 794.6667,0 c 62.9413,-0.1915 165.5413,-0.1915 228,10e-5 62.4587,0.1916 10.9612,0.3484 -114.4388,0.3483 -125.4,0 -176.5025,-0.1568 -113.5612,-0.3484 z m -445.7721,-3.5034 c 0,-0.2769 1.05,-1.3269 2.3333,-2.3334 2.1148,-1.6585 2.1619,-1.6113 0.5034,0.5034 -1.7418,2.221 -2.8367,2.9273 -2.8367,1.83 z m 321.1632,-1.83 c -1.6584,-2.1147 -1.6113,-2.1619 0.5035,-0.5034 2.221,1.7419 2.9273,2.8368 1.8299,2.8368 -0.2769,0 -1.3269,-1.05 -2.3334,-2.3334 z"
         id="path12" />
      <path
         style="fill:#93dbf7"
         d="m 1029.7442,3052.3334 c 0.3203,-35.0166 0.9266,-65.1666 1.3473,-67 0.4207,-1.8333 1.1323,-4.8333 1.5813,-6.6666 0.4491,-1.8334 1.0355,-4.2334 1.3032,-5.3334 0.2677,-1.1 0.6076,-2.15 0.7553,-2.3333 0.1478,-0.1833 0.4187,-0.9333 0.6021,-1.6667 0.1833,-0.7333 0.4833,-1.6333 0.6666,-2 0.1834,-0.3666 0.4296,-1.1166 0.5473,-1.6666 0.1176,-0.55 0.9215,-2.2712 1.7864,-3.8247 0.8649,-1.5536 1.1936,-3.2036 0.7305,-3.6667 -0.4631,-0.4631 -0.1419,-0.842 0.7136,-0.842 0.8556,0 1.4509,-0.45 1.3229,-1 -0.2458,-1.0565 3.0162,-8.5322 4.218,-9.6666 1.1773,-1.1113 8.0147,-11.8929 8.0147,-12.6381 0,-1.7933 20.6758,-22.3109 28.0911,-27.8761 6.2793,-4.7127 27.9089,-17.1251 27.9089,-16.0158 0,0.3431 1.35,-0.1261 3,-1.0426 1.65,-0.9164 3.45,-1.7625 4,-1.8802 0.55,-0.1177 1.15,-0.3348 1.3333,-0.4826 0.1833,-0.1478 1.2333,-0.4575 2.3333,-0.6883 23.51,-4.9321 2.0419,-4.7097 454.6667,-4.7097 452.6248,0 431.1568,-0.2224 454.6667,4.7097 1.1,0.2308 2.15,0.5405 2.3333,0.6883 0.1834,0.1478 0.7834,0.3649 1.3334,0.4826 0.55,0.1177 2.2,0.8835 3.6666,1.7019 1.4667,0.8183 3.1208,1.539 3.6758,1.6015 2.2267,0.2507 15.4972,7.4659 23.7241,12.8988 10.0564,6.6411 28.52,24.8386 33.1746,32.6965 1.0493,1.7714 4.4891,7.5707 7.644,12.8874 3.1549,5.3167 5.3773,9.6667 4.9388,9.6667 -0.4385,0 0.1855,1.5 1.3868,3.3333 1.2012,1.8333 1.7968,3.3333 1.3234,3.3333 -0.4734,0 -0.1137,0.9 0.7992,2 0.9129,1.1 1.2129,2 0.6667,2 -0.5463,0 -0.2463,0.9 0.6666,2 0.913,1.1 1.3283,2 0.923,2 -0.4052,0 -0.1423,1.95 0.5842,4.3334 0.7266,2.3833 1.6635,5.8333 2.0821,7.6666 0.4185,1.8334 1.019,31.9834 1.3344,67 l 0.5734,63.6667 H 1574.6629 1029.162 Z m 2182.6656,-252 c 0.3153,-35.0166 0.9158,-65.1666 1.3344,-67 0.4185,-1.8333 1.3554,-5.2833 2.082,-7.6667 0.7266,-2.3833 0.9895,-4.3333 0.5842,-4.3333 -0.4052,0 -0.075,-0.7971 0.7332,-1.7713 0.8086,-0.9742 1.6745,-2.9242 1.9244,-4.3333 0.2498,-1.4091 2.3617,-6.695 4.6932,-11.7465 2.3314,-5.0514 4.2389,-9.6514 4.2389,-10.2222 0,-0.5708 0.45,-1.2378 1,-1.4822 0.55,-0.2445 3.4,-4.0236 6.3333,-8.3981 5.5754,-8.3145 23.724,-27.3797 26.0634,-27.3797 0.7445,0 1.699,-0.9 2.1211,-2 0.4221,-1.1 1.4902,-2 2.3734,-2 0.8833,0 2.8152,-1.1266 4.2932,-2.5036 1.478,-1.3769 3.9911,-2.9174 5.5848,-3.4232 1.5936,-0.5058 2.8975,-1.5146 2.8975,-2.2418 0,-0.7272 0.6,-0.9513 1.3333,-0.4981 0.7333,0.4532 1.3333,0.1532 1.3333,-0.6667 0,-0.8198 0.6,-1.1198 1.3334,-0.6666 0.7333,0.4532 1.3333,0.1532 1.3333,-0.6667 0,-0.8199 0.6,-1.1199 1.3333,-0.6667 0.7334,0.4533 1.3334,0.089 1.3334,-0.8102 0,-0.8988 0.3789,-1.2553 0.8419,-0.7922 0.4631,0.4631 2.1131,0.1424 3.6667,-0.7126 1.5536,-0.855 3.7929,-1.7177 4.9763,-1.917 1.1833,-0.1993 3.8833,-1.0709 6,-1.9367 6.3262,-2.588 9.0411,-3.1092 26.5151,-5.0908 16.5822,-1.8806 840.7511,-1.8806 857.3333,0 17.474,1.9816 20.1889,2.5028 26.5151,5.0908 2.1167,0.8658 4.8167,1.7413 6,1.9453 1.1834,0.2041 4.0255,1.364 6.3159,2.5774 2.2903,1.2135 4.5403,1.8303 5,1.3706 0.4596,-0.4596 0.8357,-0.1003 0.8357,0.7986 0,0.8988 0.6,1.2634 1.3333,0.8102 0.7334,-0.4532 1.3334,-0.2614 1.3334,0.4262 0,0.6876 1.95,2.0508 4.3333,3.0293 2.3833,0.9785 5.4965,2.8513 6.9181,4.1618 1.4216,1.3105 3.0716,2.3827 3.6666,2.3827 0.5951,0 2.132,0.9412 3.4153,2.0915 5.5246,4.952 23,22.1917 23,22.6898 0,0.9489 9.8595,14.5072 11.2945,15.5316 0.7547,0.5388 0.9377,0.9888 0.4068,1 -0.531,0.011 0.8034,3.0204 2.9654,6.6871 2.1619,3.6666 3.5773,6.6666 3.1454,6.6666 -0.432,0 0.1974,1.5 1.3986,3.3334 1.2013,1.8333 1.7968,3.3333 1.3234,3.3333 -0.4733,0 -0.1137,0.9 0.7992,2 0.913,1.1 1.213,2 0.6667,2 -0.5463,0 -0.2463,0.9 0.6667,2 0.9129,1.1 1.3282,2 0.923,2 -0.4053,0 -0.1424,1.95 0.5842,4.3333 0.7266,2.3834 1.6612,5.8334 2.077,7.6667 0.4157,1.8334 1.018,31.9834 1.3382,67 l 0.5823,63.6667 h -545.5009 -545.501 z M 2157.3334,2220.6667 c 1.7223,-1.8333 3.4315,-3.3333 3.7982,-3.3333 0.3666,0 -0.7425,1.5 -2.4649,3.3333 -1.7223,1.8334 -3.4315,3.3334 -3.7981,3.3334 -0.3667,0 0.7425,-1.5 2.4648,-3.3334 z m 1015.8991,-0.3333 -3.2324,-3.6667 3.6667,3.2325 c 3.427,3.0211 4.2781,4.1009 3.2324,4.1009 -0.2389,0 -1.8889,-1.65 -3.6667,-3.6667 z"
         id="path11" />
      <path
         style="fill:#8fd2f3"
         d="m 1029.5439,2994.6668 c 0,-1.8334 0.3026,-2.5834 0.6725,-1.6667 0.3699,0.9167 0.3699,2.4167 0,3.3333 -0.3699,0.9167 -0.6725,0.1667 -0.6725,-1.6666 z m 1089.3334,-1.3334 c 0,-1.8333 0.3026,-2.5833 0.6725,-1.6666 0.3699,0.9166 0.3699,2.4166 0,3.3333 -0.3699,0.9167 -0.6725,0.1667 -0.6725,-1.6667 z M 1066,2918.6668 c 3.6116,-3.6667 6.8665,-6.6667 7.2331,-6.6667 0.3667,0 -2.2882,3 -5.8997,6.6667 -3.6116,3.6666 -6.8665,6.6666 -7.2331,6.6666 -0.3667,0 2.2882,-3 5.8997,-6.6666 z m 1015.2878,-1 -7.2877,-7.6667 7.6666,7.2878 c 7.1226,6.7706 8.2775,8.0455 7.2878,8.0455 -0.2084,0 -3.6584,-3.45 -7.6667,-7.6666 z M 1077.3334,2908.83 c 0,-0.2769 1.05,-1.3269 2.3333,-2.3333 2.1147,-1.6585 2.1619,-1.6114 0.5034,0.5034 -1.7418,2.221 -2.8367,2.9273 -2.8367,1.8299 z m 59.75,-27.0741 c 0.9625,-0.3851 2.1125,-0.3378 2.5555,0.1053 0.4431,0.4431 -0.3444,0.7582 -1.75,0.7003 -1.5532,-0.064 -1.8692,-0.3799 -0.8055,-0.8056 z m 873.3333,0 c 0.9625,-0.3851 2.1125,-0.3378 2.5556,0.1053 0.443,0.4431 -0.3445,0.7582 -1.75,0.7003 -1.5533,-0.064 -1.8692,-0.3799 -0.8056,-0.8056 z m -650.0833,-1.4225 c 117.8833,-0.1878 310.7833,-0.1878 428.6667,0 117.8833,0.1879 21.4333,0.3415 -214.3334,0.3415 -235.7667,0 -332.2167,-0.1536 -214.3333,-0.3415 z M 4301.544,2742.6668 c 0,-1.8334 0.3026,-2.5834 0.6725,-1.6667 0.3699,0.9167 0.3699,2.4167 0,3.3333 -0.3699,0.9167 -0.6725,0.1667 -0.6725,-1.6666 z m -1089.3334,-1.3334 c 0,-1.8333 0.3027,-2.5833 0.6725,-1.6666 0.3699,0.9166 0.3699,2.4166 0,3.3333 -0.3698,0.9167 -0.6725,0.1667 -0.6725,-1.6667 z m 1063.6195,-62.3333 c -1.6585,-2.1148 -1.6114,-2.1619 0.5034,-0.5034 2.221,1.7418 2.9273,2.8367 1.8299,2.8367 -0.2769,0 -1.3269,-1.05 -2.3333,-2.3333 z m -1032.4967,-7 c 1.3273,-1.4667 2.7133,-2.6667 3.08,-2.6667 0.3667,0 -0.4193,1.2 -1.7466,2.6667 -1.3273,1.4666 -2.7133,2.6666 -3.08,2.6666 -0.3667,0 0.4193,-1.2 1.7466,-2.6666 z m 1025.8991,-1 -3.2324,-3.6667 3.6667,3.2324 c 3.427,3.0212 4.2781,4.1009 3.2324,4.1009 -0.2388,0 -1.8888,-1.65 -3.6667,-3.6666 z m -9.3333,-9.3334 -3.2324,-3.6666 3.6667,3.2324 c 3.427,3.0212 4.2781,4.1009 3.2324,4.1009 -0.2389,0 -1.8889,-1.65 -3.6667,-3.6667 z m -1004.5658,-1.6666 c 1.3273,-1.4667 2.7133,-2.6667 3.08,-2.6667 0.3667,0 -0.4193,1.2 -1.7466,2.6667 -1.3273,1.4666 -2.7133,2.6666 -3.08,2.6666 -0.3667,0 0.4193,-1.2 1.7466,-2.6666 z m 63.0834,-30.2442 c 0.9625,-0.3851 2.1125,-0.3378 2.5555,0.1053 0.4431,0.443 -0.3444,0.7582 -1.75,0.7003 -1.5532,-0.064 -1.8692,-0.3799 -0.8055,-0.8056 z m 876,0 c 0.9625,-0.3851 2.1125,-0.3378 2.5556,0.1053 0.443,0.443 -0.3445,0.7582 -1.75,0.7003 -1.5533,-0.064 -1.8692,-0.3799 -0.8056,-0.8056 z m -865.4012,-1.3655 c 1.6586,-0.3189 4.0586,-0.3068 5.3334,0.027 1.2748,0.3337 -0.082,0.5947 -3.0156,0.5799 -2.9333,-0.015 -3.9763,-0.2879 -2.3178,-0.6068 z m 852.0001,0 c 1.6585,-0.3189 4.0585,-0.3068 5.3333,0.027 1.2748,0.3337 -0.082,0.5947 -3.0155,0.5799 -2.9334,-0.015 -3.9764,-0.2879 -2.3178,-0.6068 z M 2120.3175,2355.0001 c 0.4724,-59.9696 0.6661,-64.2587 3.3355,-73.8619 6.4322,-23.1398 16.972,-41.8298 32.8677,-58.2837 16.9304,-17.5249 37.0239,-29.4432 60.6513,-35.9748 l 12.8281,-3.5463 h 436 436 l 12.8281,3.5463 c 46.1747,12.7647 80.4762,47.3374 93.519,94.2585 2.6694,9.6032 2.8631,13.8923 3.3355,73.8619 l 0.5015,63.6666 h -546.1841 -546.1842 z"
         id="path10" />
      <path
         style="fill:#fcc770"
         d="m 1714.772,2453.889 c 0.064,-1.5533 0.3799,-1.8692 0.8055,-0.8056 0.3852,0.9625 0.3378,2.1125 -0.1052,2.5556 -0.4431,0.443 -0.7582,-0.3445 -0.7003,-1.75 z m 2040.8948,-458.772 c 0.9166,-0.3699 2.4166,-0.3699 3.3333,0 0.9167,0.3699 0.1667,0.6725 -1.6667,0.6725 -1.8333,0 -2.5833,-0.3026 -1.6666,-0.6725 z M 2404.1053,1551.2223 c 0.064,-1.5533 0.38,-1.8692 0.8056,-0.8056 0.3852,0.9625 0.3378,2.1125 -0.1053,2.5556 -0.443,0.443 -0.7582,-0.3445 -0.7003,-1.75 z m 522.6667,0 c 0.064,-1.5533 0.3799,-1.8692 0.8056,-0.8056 0.3851,0.9625 0.3378,2.1125 -0.1053,2.5556 -0.443,0.443 -0.7582,-0.3445 -0.7003,-1.75 z m -901.2281,-292.5556 c 0,-1.8333 0.3027,-2.5833 0.6725,-1.6667 0.3699,0.9167 0.3699,2.4167 0,3.3334 -0.3698,0.9166 -0.6725,0.1666 -0.6725,-1.6667 z m 1280.0001,0 c 0,-1.8333 0.3026,-2.5833 0.6725,-1.6667 0.3699,0.9167 0.3699,2.4167 0,3.3334 -0.3699,0.9166 -0.6725,0.1666 -0.6725,-1.6667 z M 2665.0834,788.42254 c 0.9625,-0.38516 2.1125,-0.33779 2.5556,0.10526 0.443,0.44306 -0.3445,0.75819 -1.75,0.70029 -1.5533,-0.064 -1.8692,-0.37992 -0.8056,-0.80555 z"
         id="path9" />
      <path
         style="fill:#fcc15e"
         d="m 1625.3334,2508.83 c 0,-0.2769 1.05,-1.3269 2.3333,-2.3333 2.1148,-1.6585 2.1619,-1.6114 0.5034,0.5034 -1.7418,2.221 -2.8367,2.9273 -2.8367,1.8299 z"
         id="path8" />
      <path
         style="fill:#fbb94b"
         d="m 1519.83,2507.0001 c -1.6585,-2.1148 -1.6114,-2.1619 0.5034,-0.5034 2.221,1.7418 2.9273,2.8367 1.8299,2.8367 -0.2769,0 -1.3269,-1.05 -2.3333,-2.3333 z m 748,-505.3334 c -1.6585,-2.1147 -1.6113,-2.1619 0.5034,-0.5034 2.221,1.7418 2.9273,2.8368 1.8299,2.8368 -0.2768,0 -1.3268,-1.05 -2.3333,-2.3334 z m 793.5034,1.83 c 0,-0.2769 1.05,-1.3269 2.3334,-2.3334 2.1147,-1.6585 2.1619,-1.6113 0.5034,0.5034 -1.7419,2.221 -2.8368,2.9273 -2.8368,1.83 z m -1032,-756.0001 c 0,-0.2768 1.05,-1.3268 2.3333,-2.3333 2.1148,-1.6585 2.1619,-1.6113 0.5034,0.5034 -1.7418,2.221 -2.8367,2.9273 -2.8367,1.8299 z m 1270.4966,-1.8299 c -1.6585,-2.1147 -1.6113,-2.1619 0.5034,-0.5034 2.221,1.7418 2.9273,2.8367 1.83,2.8367 -0.2769,0 -1.3269,-1.05 -2.3334,-2.3333 z"
         id="path7" />
      <path
         style="fill:#6da7d7"
         d="m 1574.3309,3116.3334 545.6641,-0.3365 0.3384,-348.9984 0.3384,-348.9984 0.3308,349.6667 0.3308,349.6666 L 1575,3117.0017 1028.6667,3116.67 Z m 1636.6653,-474.6667 0.3294,-223.6666 0.3411,222.9984 0.3412,222.9984 545.6628,0.3365 545.6628,0.3366 -546.3334,0.3317 -546.3333,0.3317 z"
         id="path6" />
      <path
         style="fill:#fbb33a"
         d="m 1570.2931,2594.3334 c -1.2192,-0.9167 -12.6625,-20.8667 -25.4297,-44.3333 l -23.2131,-42.6667 -43.5911,-24 c -23.9751,-13.2 -44.1943,-25.0823 -44.9315,-26.405 -0.9711,-1.7424 -0.7789,-3.2621 0.6978,-5.5157 1.207,-1.8421 19.2295,-12.4817 44.1946,-26.0902 35.6613,-19.4391 42.6306,-23.725 45.2344,-27.8177 1.6928,-2.6609 12.2253,-21.6381 23.4054,-42.1714 11.1802,-20.5333 21.2484,-38.3833 22.3738,-39.6667 1.1255,-1.2833 3.3603,-2.3333 4.9663,-2.3333 1.6061,0 3.8113,1.05 4.9006,2.3333 1.0893,1.2834 11.7504,20.3334 23.6914,42.3334 11.941,22 22.9927,41.2848 24.5594,42.8551 1.5668,1.5704 19.6487,11.9872 40.182,23.1484 48.463,26.343 47.5958,25.7739 47.0791,30.8931 -0.3931,3.8962 -2.434,5.1936 -43.6181,27.7309 -25.1526,13.7644 -44.1359,24.9797 -45.432,26.8414 -1.2245,1.7587 -12.0075,21.1977 -23.9622,43.1977 -20.7506,38.187 -24.0047,43.3334 -27.4002,43.3334 -0.8196,0 -2.4878,-0.75 -3.7069,-1.6667 z m 2183.4382,-227.3926 c -0.8812,-0.5601 -15.1881,-25.9009 -31.7932,-56.3129 -16.6051,-30.412 -30.9787,-56.5388 -31.9414,-58.0596 -0.9626,-1.5208 -27.8923,-17.0561 -59.8437,-34.5228 -36.2211,-19.8009 -58.3835,-32.6715 -58.8637,-34.1846 -0.4237,-1.3347 -0.1552,-3.576 0.5965,-4.9805 0.7517,-1.4046 26.9064,-16.4955 58.1217,-33.5354 41.9326,-22.8903 57.5582,-32.0737 59.8308,-35.1633 1.6917,-2.2999 16.146,-28.1816 32.1206,-57.515 15.9746,-29.3333 29.6678,-54.1139 30.4294,-55.0681 0.7616,-0.9541 3.2358,-1.5541 5.4982,-1.3333 3.9567,0.3861 5.2916,2.5539 35.0002,56.8378 16.9876,31.04 31.9194,57.5775 33.1816,58.9724 1.2623,1.3948 27.7427,16.4426 58.8453,33.4396 31.1025,16.997 57.1634,32.0497 57.9131,33.4504 1.0007,1.8699 0.8318,3.3574 -0.6357,5.597 -1.1825,1.8048 -25.2082,15.72 -58.8416,34.0799 -31.2637,17.0663 -57.6585,32.3035 -58.6551,33.8604 -0.9967,1.5568 -15.0867,27.1123 -31.3113,56.7899 -16.2246,29.6776 -30.466,55.0276 -31.6477,56.3333 -2.2676,2.5057 -5.3373,3.0099 -8.004,1.3148 z M 2275.3334,2006.1179 c -5.6917,-2.5297 -9.9858,-7.6636 -10.8465,-12.9679 -0.5906,-3.6395 13.514,-48.3762 69.5275,-220.5245 46.2288,-142.0769 70.296,-217.9149 70.3492,-221.6765 0.053,-3.7439 -0.8455,-6.9659 -2.6026,-9.3333 -1.4759,-1.9886 -85.4259,-63.7277 -186.5556,-137.198 -105.6223,-76.7342 -184.862,-135.1786 -186.1983,-137.3333 -1.2795,-2.0631 -2.3295,-6.3098 -2.3334,-9.4373 -0.01,-4.6207 0.8483,-6.6195 4.5571,-10.6666 l 4.5641,-4.9805 231.8281,-0.6666 c 218.5915,-0.6286 232.0331,-0.801 235.4174,-3.0186 1.9741,-1.2935 4.4313,-3.6935 5.4606,-5.3333 1.0293,-1.6398 33.2143,-99.5815 71.5221,-217.6481 38.3079,-118.06671 70.4843,-216.30655 71.5031,-218.31081 5.1565,-10.14432 23.7913,-10.14432 28.9478,0 1.0187,2.00426 33.1951,100.2441 71.503,218.31081 38.3079,118.0666 70.4929,216.0083 71.5221,217.6481 1.0293,1.6398 3.4866,4.0398 5.4607,5.3333 3.3842,2.2176 16.8259,2.39 235.4173,3.0186 l 231.8282,0.6666 4.5641,4.9805 c 3.7088,4.0471 4.5627,6.0459 4.557,10.6666 0,3.1275 -1.0538,7.3742 -2.3333,9.4373 -1.3363,2.1547 -80.576,60.5991 -186.1984,137.3333 -101.1296,73.4703 -185.0796,135.2094 -186.5555,137.198 -1.7589,2.3697 -2.6547,5.5858 -2.5997,9.3333 0.055,3.7549 24.2054,79.8568 70.3486,221.681 55.9728,172.0364 70.1141,216.891 69.5245,220.5245 -1.3733,8.4621 -11.7175,15.891 -19.6892,14.1401 -2.1453,-0.4712 -86.4432,-60.8209 -187.3288,-134.1105 -100.8856,-73.2895 -185.1385,-134.1381 -187.2286,-135.2189 -4.8335,-2.4995 -9.7035,-2.4968 -14.5471,0.01 -2.0985,1.0852 -85.3187,61.2083 -184.9338,133.6069 -99.6151,72.3986 -183.1952,132.7107 -185.7336,134.0269 -5.4351,2.8182 -7.3534,2.8953 -12.7181,0.511 z"
         id="path5" />
      <path
         style="fill:#649acf"
         d="m 2120.6585,3541.3334 c 0,-233.5666 0.1537,-329.1166 0.3415,-212.3333 0.1879,116.7833 0.1879,307.8833 0,424.6667 -0.1878,116.7833 -0.3415,21.2333 -0.3415,-212.3334 z m 1090.6686,-126 c 0,-302.8666 0.1528,-426.9656 0.3396,-275.7754 0.1869,151.1903 0.1869,398.9903 10e-5,550.6667 -0.1869,151.6765 -0.3397,27.9754 -0.3397,-274.8913 z m -818.4357,-996.3333 c 149.7235,-0.1869 395.1235,-0.1869 545.3333,0 150.2098,0.1868 27.7087,0.3397 -272.2246,0.3397 -299.9334,0 -422.8323,-0.1528 -273.1087,-0.3397 z"
         id="path4" />
      <path
         style="fill:#5895cd"
         d="m 1029.3334,3541.3334 v -424 h 545.3333 545.3334 v 424 424.0001 h -545.3334 -545.3333 z m 2182.6667,-126 v -550 h 545.3333 545.3334 v 550 550.0001 h -545.3334 -545.3333 z"
         id="path3" />
      <path
         style="fill:#518ac8"
         d="m 2121.3334,3192.6668 v -772.6667 h 544.6667 544.6667 v 772.6667 772.6667 h -544.6667 -544.6667 z"
         id="path2" />
    </g>
  </g>
</svg>
