<?xml version="1.0" encoding="UTF-8" standalone="no"?>
<!-- Created with Inkscape (http://www.inkscape.org/) -->

<svg
   version="1.1"
   id="svg1"
   width="163.84"
   height="163.84"
   viewBox="0 0 163.84 163.84"
   xmlns:xlink="http://www.w3.org/1999/xlink"
   xmlns="http://www.w3.org/2000/svg"
   xmlns:svg="http://www.w3.org/2000/svg">
  <defs
     id="defs1">
    <linearGradient
       id="linearGradient19">
      <stop
         style="stop-color:#41d3fa;stop-opacity:1;"
         offset="0.02747254"
         id="stop19" />
      <stop
         style="stop-color:#8046e3;stop-opacity:1;"
         offset="0.97802198"
         id="stop20" />
    </linearGradient>
    <linearGradient
       xlink:href="#linearGradient19"
       id="linearGradient20"
       x1="25.354916"
       y1="25.073971"
       x2="135.99255"
       y2="140.44432"
       gradientUnits="userSpaceOnUse" />
  </defs>
  <g
     id="g1">
    <g
       id="g16"
       style="display:inline">
      <ellipse
         style="display:inline;opacity:1;fill:url(#linearGradient20);fill-opacity:1;stroke-width:1.25838;fill-rule:nonzero"
         id="path17"
         cx="80.672691"
         cy="82.859901"
         rx="80.100044"
         ry="81.310852"
         transform="rotate(-0.59285499)" />
      <path
         style="display:inline;fill:#1b1b1b;fill-opacity:1"
         d="m 106.9965,110.98573 c -0.37592,-0.18203 -0.84392,-0.68306 -1.04,-1.1134 -0.5088,-1.1167 -0.50399,-54.798512 0.005,-55.915646 0.53377,-1.171494 2.05566,-1.720171 3.11777,-1.124025 1.69248,0.94996 1.64285,0.01039 1.55889,29.515116 -0.0782,27.467775 -0.0782,27.467775 -0.97602,28.239995 -0.96362,0.8288 -1.58444,0.92149 -2.66565,0.39796 z m -41.251047,-4.57119 c -0.785454,-0.78545 -0.785454,-0.78545 -0.785454,-24.494542 0,-23.70909 0,-23.70909 0.785454,-24.494545 0.959901,-0.959901 2.052909,-1.002027 3.171391,-0.122229 0.843154,0.663226 0.843154,0.663226 0.843154,24.494545 0,23.831321 0,23.831321 -0.785454,24.616771 -0.432,0.432 -1.158546,0.78546 -1.614546,0.78546 -0.455999,0 -1.182545,-0.35346 -1.614545,-0.78546 z m -11.019148,-2.82557 c -1.629445,-0.82445 -1.610229,-0.54609 -1.525429,-22.096799 0.07912,-20.107828 0.07912,-20.107828 0.976967,-20.88 1.181903,-1.016471 1.989229,-0.97433 3.126771,0.163212 0.935385,0.935385 0.935385,0.935385 0.935385,21.144615 0,20.209232 0,20.209232 -0.935385,21.144612 -1.036751,1.03675 -1.413997,1.11348 -2.578309,0.52436 z m 23.10696,-0.12315 c -0.223703,-0.09 -0.619703,-0.57548 -0.879999,-1.07884 -0.402544,-0.77844 -0.473268,-3.83772 -0.473268,-20.472128 0,-14.254705 0.100929,-19.746429 0.37227,-20.255891 0.918203,-1.723991 2.428644,-1.947279 3.812346,-0.563578 0.935384,0.935385 0.935384,0.935385 0.935384,20.824615 0,19.889232 0,19.889232 -0.935384,20.824612 -0.874042,0.87405 -1.839974,1.12009 -2.831349,0.72121 z m 22.702515,-1.16645 c -0.695782,-0.74062 -0.695782,-0.74062 -0.695782,-20.424216 0,-19.683594 0,-19.683594 0.740622,-20.379375 0.9426,-0.885528 2.56319,-0.911965 3.41938,-0.05578 0.62623,0.626236 0.64,1.066666 0.64,20.479999 0,19.413332 -0.0138,19.853762 -0.64,20.480002 -0.89133,0.89133 -2.57837,0.84232 -3.46422,-0.10063 z m 29.12,-1.28 C 128.96,100.27875 128.96,100.27875 128.96,81.875154 c 0,-18.403594 0,-18.403594 0.74062,-19.099375 0.9426,-0.885528 2.56319,-0.911965 3.41938,-0.05578 0.62528,0.625287 0.64,1.066666 0.64,19.199999 0,18.133332 -0.0147,18.574712 -0.64,19.200002 -0.89133,0.89133 -2.57837,0.84232 -3.46422,-0.10063 z m 12.53846,0.10034 c -1.75098,-0.69899 -1.71424,-0.28638 -1.71424,-19.253069 0,-17.510954 0,-17.510954 0.74935,-18.382131 0.9485,-1.102698 2.49997,-1.177412 3.50842,-0.168956 0.70223,0.702222 0.70223,0.702222 0.70223,18.604444 0,17.48374 -0.015,17.916609 -0.64,18.517672 -0.81908,0.78765 -1.73842,1.02828 -2.60576,0.68204 z m -58.600975,-0.21389 c -0.223703,-0.09 -0.619703,-0.57548 -0.88,-1.078842 -0.703135,-1.359713 -0.70785,-34.445128 -0.0051,-35.804093 0.794534,-1.53646 2.605053,-1.778759 3.866381,-0.517432 C 87.36,64.290908 87.36,64.290908 87.36,81.919998 c 0,17.629091 0,17.629091 -0.785454,18.414542 -0.743627,0.74363 -1.969223,0.97848 -2.981279,0.57128 z M 25.919999,98.972979 c -0.264,-0.09707 -0.732,-0.396021 -1.04,-0.664333 -0.519275,-0.452363 -0.56,-1.644199 -0.56,-16.388648 0,-17.545062 -0.109526,-16.603299 1.991947,-17.127737 0.705739,-0.176123 1.056472,-0.03307 1.84,0.750453 0.968053,0.968054 0.968053,0.968054 0.968053,16.377284 0,15.409231 0,15.409231 -0.935384,16.344615 -0.925088,0.925088 -1.330403,1.051869 -2.264616,0.708366 z m -12.043493,-3.02725 c -0.375922,-0.182024 -0.843922,-0.683054 -1.04,-1.113399 -0.500522,-1.098525 -0.495943,-24.736187 0.005,-25.835646 0.533769,-1.171495 2.055667,-1.720172 3.117776,-1.124025 1.627891,0.913711 1.649108,1.110351 1.561852,14.475312 C 17.44,94.775943 17.44,94.775943 16.542155,95.54797 c -0.963653,0.828615 -1.584508,0.921257 -2.665649,0.397759 z m 98.879994,-1.92 C 111.45291,93.39452 111.36,92.586676 111.36,81.883904 c 0,-10.439617 0.0716,-11.127203 1.25227,-12.033728 1.10715,-0.850044 2.73247,-0.34378 3.49546,1.088785 0.52336,0.982652 0.52336,20.979422 0,21.962074 -0.75777,1.422756 -1.92597,1.814814 -3.35123,1.124694 z M 60.591132,92.641271 C 60.054689,92.415714 59.52223,91.987377 59.40789,91.68941 c -0.11434,-0.297966 -0.207891,-4.777979 -0.207891,-9.955584 0,-8.987161 0.02901,-9.442835 0.64,-10.053828 0.988556,-0.988556 2.31939,-0.956249 3.44,0.08351 0.715458,0.663838 0.72,0.727903 0.72,10.156491 0,9.434501 -0.0041,9.492123 -0.72,10.136536 -1.032071,0.929002 -1.584425,1.04912 -2.688867,0.584736 z m 28.424646,-0.581897 c -0.681925,-0.725877 -0.69578,-0.928678 -0.69578,-10.18422 0,-9.443595 0,-9.443595 0.740624,-10.139375 0.982454,-0.922968 2.297294,-0.886954 3.273921,0.08967 0.785455,0.785454 0.785455,0.785454 0.785455,10.094545 0,9.309091 0,9.309091 -0.785455,10.094545 -1.007878,1.007879 -2.396407,1.026635 -3.318765,0.04483 z M 71.505453,90.094543 c -0.785455,-0.785454 -0.785455,-0.785454 -0.785455,-8.174545 0,-7.389091 0,-7.389091 0.785455,-8.174545 0.959901,-0.959901 2.052909,-1.002027 3.171391,-0.122229 0.843154,0.663226 0.843154,0.663226 0.843154,8.296774 0,7.633549 0,7.633549 -0.843154,8.296774 -1.118482,0.879798 -2.21149,0.837673 -3.171391,-0.122229 z m -23.210069,-1.74993 c -0.935385,-0.935384 -0.935385,-0.935384 -0.935385,-6.424615 0,-5.48923 0,-5.48923 0.935385,-6.424615 0.514461,-0.514462 1.245538,-0.935385 1.624615,-0.935385 0.379077,0 1.110154,0.420923 1.624615,0.935385 0.935385,0.935385 0.935385,0.935385 0.935385,6.424615 0,5.489231 0,5.489231 -0.935385,6.424615 -0.514461,0.514462 -1.245538,0.935385 -1.624615,0.935385 -0.379077,0 -1.110154,-0.420923 -1.624615,-0.935385 z M 136.16,88.910484 c -1.36223,-0.745079 -1.44,-1.125945 -1.44,-7.051647 0,-5.247701 0.05,-5.748859 0.63186,-6.330699 0.99671,-0.996714 2.17017,-1.151258 3.15599,-0.415644 0.85215,0.63586 0.85215,0.63586 0.93896,6.7331 0.0868,6.09724 0.0868,6.09724 -0.76316,6.765822 -0.9462,0.744282 -1.57371,0.818646 -2.52365,0.299068 z M 19.15545,88.348271 C 18.412199,87.746423 18.4,87.643614 18.4,81.981867 c 0,-5.20994 0.0577,-5.818439 0.609596,-6.428273 0.914661,-1.010689 2.828005,-0.922702 3.687178,0.169559 0.610941,0.776686 0.663225,1.265204 0.663225,6.196845 0,4.931642 -0.05228,5.420159 -0.663225,6.196845 -0.811228,1.031309 -2.423402,1.136666 -3.541324,0.231428 z m 11.767704,-0.0515 c -0.843155,-0.663225 -0.843155,-0.663225 -0.843155,-6.376774 0,-5.713548 0,-5.713548 0.843155,-6.376774 1.118482,-0.879798 2.211489,-0.837672 3.171391,0.122229 0.772662,0.772663 0.785454,0.874523 0.785454,6.254545 0,5.380022 -0.01279,5.481883 -0.785454,6.254545 -0.959902,0.959902 -2.052909,1.002027 -3.171391,0.122229 z M 118.17784,87.867705 C 117.28,87.095412 117.28,87.095412 117.28,81.919998 c 0,-5.175413 0,-5.175413 0.89784,-5.947706 1.14651,-0.986183 2.28192,-0.981623 3.2767,0.01316 0.76886,0.768854 0.78546,0.894276 0.78546,5.934545 0,5.040269 -0.0166,5.165691 -0.78546,5.934545 -0.99478,0.994784 -2.13019,0.999344 -3.2767,0.01316 z m 29.12,0 C 146.4,87.095412 146.4,87.095412 146.4,81.919998 c 0,-5.175413 0,-5.175413 0.89784,-5.947706 1.14651,-0.986183 2.28192,-0.981623 3.2767,0.01316 0.76886,0.768854 0.78546,0.894276 0.78546,5.934545 0,5.040269 -0.0166,5.165691 -0.78546,5.934545 -0.99478,0.994784 -2.13019,0.999344 -3.2767,0.01316 z M 7.5054544,87.214544 C 6.7458376,86.454927 6.7199998,86.280761 6.7199998,81.919998 c 0,-4.360763 0.025838,-4.534928 0.7854546,-5.294545 1.0078782,-1.007878 2.3964075,-1.026635 3.3187646,-0.04483 0.648384,0.690172 0.695781,1.056948 0.695781,5.384219 0,4.440145 -0.03245,4.674079 -0.740625,5.339376 -0.9824535,0.922967 -2.2972931,0.886953 -3.2739206,-0.08967 z M 95.460917,86.404656 c -1.110543,-0.458395 -1.380919,-1.356732 -1.380919,-4.58817 0,-3.653173 0.453582,-4.504488 2.4,-4.504488 1.961381,0 2.4,0.842148 2.4,4.608 0,2.514644 -0.109966,3.259056 -0.56,3.790904 -0.670518,0.792415 -1.898294,1.090334 -2.859081,0.693754 z M 153.92,86.492979 c -1.42239,-0.523003 -1.6,-1.030642 -1.6,-4.572981 0,-3.652441 0.18444,-4.119465 1.824,-4.618638 0.82346,-0.250704 2.48473,0.510764 2.77722,1.272975 0.10933,0.284904 0.19878,1.790452 0.19878,3.345663 0,3.342234 -0.1125,3.71626 -1.30289,4.331835 -0.96144,0.497181 -1.1393,0.519789 -1.89711,0.241146 z M 36.625454,85.614544 c -0.71874,-0.71874 -0.785455,-1.032548 -0.785455,-3.694546 0,-2.661998 0.06672,-2.975806 0.785455,-3.694545 0.959901,-0.959901 2.052908,-1.002027 3.17139,-0.122229 0.808969,0.636335 0.843155,0.791089 0.843155,3.816774 0,3.025686 -0.03419,3.18044 -0.843155,3.816774 -1.118482,0.879799 -2.211489,0.837673 -3.17139,-0.122228 z m 87.417696,0.122228 C 123.23418,85.100438 123.2,84.945684 123.2,81.919998 c 0,-3.025685 0.0342,-3.180439 0.84315,-3.816774 1.11848,-0.879798 2.21149,-0.837672 3.17139,0.122229 C 127.93328,78.944192 128,79.258 128,81.919998 c 0,2.661998 -0.0667,2.975806 -0.78546,3.694546 -0.9599,0.959901 -2.05291,1.002027 -3.17139,0.122228 z M 42.263225,84.276843 c -0.458665,-0.583097 -0.663226,-1.310028 -0.663226,-2.356845 0,-2.591358 1.821488,-3.960275 3.83541,-2.882456 1.394355,0.746236 1.587241,4.179805 0.306741,5.460305 -0.935049,0.935049 -2.655547,0.825752 -3.478925,-0.221004 z"
         id="path13" />
    </g>
  </g>
</svg>
