<?xml version="1.0" encoding="UTF-8" standalone="no"?>
<!-- Created with Inkscape (http://www.inkscape.org/) -->

<svg
   version="1.1"
   id="svg1"
   width="618.66669"
   height="618.66669"
   viewBox="0 0 618.66669 618.66669"
   xmlns="http://www.w3.org/2000/svg"
   xmlns:svg="http://www.w3.org/2000/svg">
  <defs
     id="defs1" />
  <g
     id="g1">
    <g
       id="g15"
       style="display:inline">
      <path
         style="fill:#d8e6eb"
         d="m 43.990252,580.2761 c -1.912029,-1.16779 -4.430235,-3.68764 -5.596013,-5.59967 -2.057178,-3.37404 -2.119597,-5.50246 -2.119597,-72.27641 0,-66.77395 0.06242,-68.90238 2.119597,-72.27642 1.165778,-1.91203 3.683984,-4.43024 5.596013,-5.59601 3.226063,-1.96696 5.416014,-2.11989 30.40975,-2.12359 l 26.933338,-0.004 0.004,-122.93333 c 0.004,-120.78671 0.041,-122.99405 2.12359,-126.40976 3.75109,-6.15227 7.69321,-7.71508 19.47243,-7.71959 l 10.4,-0.004 v -25.70546 c 0,-28.49342 0.45412,-30.85696 6.79817,-35.38222 2.81988,-2.01143 5.02437,-2.43519 14.2685,-2.74275 l 10.93333,-0.36376 0.004,-26.836241 c 0.004,-24.896851 0.15716,-27.087473 2.12358,-30.312657 1.16578,-1.912029 3.68398,-4.430235 5.59601,-5.596013 3.41976,-2.085052 5.64073,-2.119597 136.27642,-2.119597 130.6357,0 132.85666,0.03455 136.27642,2.119597 1.91203,1.165778 4.43024,3.683984 5.59602,5.596013 1.96695,3.226063 2.11988,5.416014 2.12358,30.40975 l 0.004,26.933338 10.4,0.004 c 11.77921,0.005 15.72134,1.56733 19.47243,7.7196 1.96396,3.22116 2.11989,5.41487 2.12358,29.87642 l 0.004,26.4 10.4,0.004 c 11.77921,0.005 15.72134,1.56732 19.47243,7.71959 2.08257,3.41569 2.11967,5.62294 2.12358,126.36003 l 0.004,122.88361 28.25066,0.31639 28.25066,0.3164 4.01601,4.01778 4.01601,4.01777 v 71.43112 71.43111 l -4.01775,4.01778 -4.01774,4.01778 -263.18226,0.26633 C 49.520832,582.39727 47.439534,582.38278 43.990252,580.2761 Z"
         id="path29" />
      <path
         style="fill:#c4d2db"
         d="m 43.990252,580.27245 c -1.912029,-1.16578 -4.430235,-3.68399 -5.596013,-5.59602 -2.057178,-3.37404 -2.119597,-5.50246 -2.119597,-72.27641 0,-66.77395 0.06242,-68.90238 2.119597,-72.27642 1.165778,-1.91203 3.683984,-4.43024 5.596013,-5.59601 3.226063,-1.96696 5.416014,-2.11989 30.40975,-2.12359 l 26.933338,-0.004 0.002,-122.4 c 0.002,-114.42238 0.12322,-122.63839 1.86667,-126.05751 1.02576,-2.01163 3.22006,-4.65163 4.87624,-5.86667 2.98787,-2.19202 3.78018,-2.21135 102.13334,-2.49206 l 99.1221,-0.2829 V 133.3171 101.33334 h -72.05051 -72.05051 l 0.31718,-27.657659 c 0.29842,-26.022756 0.44776,-27.835524 2.52633,-30.666667 1.21504,-1.654957 3.85504,-3.848267 5.86667,-4.874022 3.42395,-1.745915 12.10369,-1.86486 135.92418,-1.862679 130.10139,0.0023 132.32358,0.03703 135.74308,2.121926 1.91203,1.165778 4.43024,3.683984 5.59602,5.596013 1.96695,3.226063 2.11988,5.416014 2.12358,30.40975 l 0.004,26.933338 h 9.26323 c 11.97566,0 17.34495,2.33554 20.53932,8.93422 2.02919,4.19175 2.19745,6.47369 2.19745,29.80255 v 25.26323 l 10.4,0.004 c 11.77921,0.005 15.72134,1.56732 19.47243,7.71959 2.08258,3.41571 2.11967,5.62305 2.12358,126.40976 l 0.004,122.93333 26.93333,0.004 c 24.99374,0.004 27.18369,0.15663 30.40975,2.12359 1.91203,1.16577 4.43024,3.68398 5.59602,5.59601 2.05718,3.37404 2.11959,5.50247 2.11959,72.27642 0,66.77395 -0.0624,68.90237 -2.11959,72.27641 -1.16578,1.91203 -3.68399,4.43024 -5.59602,5.59602 -3.44398,2.09982 -5.91954,2.11959 -265.34309,2.11959 -259.423545,0 -261.899106,-0.0198 -265.343088,-2.11959 z"
         id="path28" />
      <path
         style="fill:#51dc8e"
         d="m 45.120833,580.18117 c -3.198411,-1.58319 -5.104654,-3.50924 -6.666667,-6.73593 -2.133869,-4.40798 -2.187498,-6.14975 -2.187498,-71.04522 0,-64.99341 0.05064,-66.63107 2.197449,-71.06578 1.59542,-3.2957 3.441075,-5.14136 6.736773,-6.73678 4.199853,-2.03311 6.468503,-2.19745 30.335885,-2.19745 h 25.796565 l 0.0234,-121.86667 c 0.0228,-118.3976 0.0825,-121.99674 2.09731,-126.43602 1.58323,-3.48831 3.15494,-5.06002 6.64324,-6.64325 4.4718,-2.0296 8.73691,-2.07434 199.76937,-2.09565 183.75802,-0.0205 195.41439,0.0875 198.85751,1.84324 2.01163,1.02576 4.65163,3.22011 5.86667,4.87635 2.20049,2.99952 2.21025,3.49634 2.48897,126.61624 l 0.27982,123.6049 27.6445,0.3171 c 26.00951,0.29834 27.82248,0.44776 30.65352,2.52625 1.65496,1.21504 3.85386,3.85504 4.88644,5.86667 1.74387,3.39734 1.85769,8.56494 1.6,72.64657 -0.27295,67.87662 -0.31305,69.03762 -2.48658,72.00001 -1.21504,1.65601 -3.85504,3.85019 -5.86667,4.87594 -3.4525,1.76048 -18.2459,1.86506 -263.92418,1.86583 l -260.266678,8.2e-4 z M 165.33334,75.157509 c 0,-24.129145 0.16793,-26.504994 2.14769,-30.385646 1.38235,-2.709636 3.64787,-4.975153 6.3575,-6.357506 4.15187,-2.118125 6.02014,-2.147666 135.71899,-2.146032 123.09468,0.0016 131.74318,0.120989 135.16667,1.866667 2.01163,1.025755 4.65163,3.219065 5.86667,4.874022 2.07857,2.831143 2.2279,4.643911 2.52633,30.666667 l 0.31717,27.657659 H 309.38385 165.33334 Z"
         id="path27" />
      <path
         style="fill:#53e15e"
         d="m 45.120833,580.18117 c -3.198411,-1.58319 -5.104654,-3.50924 -6.666667,-6.73593 -2.133869,-4.40798 -2.187498,-6.14975 -2.187498,-71.04522 0,-64.99341 0.05064,-66.63107 2.197449,-71.06578 1.59542,-3.2957 3.441075,-5.14136 6.736773,-6.73678 4.199529,-2.03295 6.468715,-2.19745 30.314133,-2.19745 h 25.774807 l 0.28842,-123.12211 c 0.28688,-122.46451 0.30017,-123.13785 2.48766,-126.06743 1.20958,-1.61993 3.52472,-3.93497 5.14474,-5.14456 l 2.9455,-2.19924 195.82285,-0.28069 195.82284,-0.2807 4.56831,2.21148 c 3.32554,1.60986 5.1661,3.44636 6.76575,6.7508 2.17947,4.50219 2.19745,5.53532 2.19745,126.28538 V 422.299 l 27.65766,0.31717 c 26.02275,0.29843 27.83552,0.44776 30.66666,2.52633 1.65496,1.21504 3.85386,3.85504 4.88644,5.86667 1.74387,3.39734 1.85769,8.56494 1.6,72.64657 -0.27295,67.87662 -0.31305,69.03762 -2.48658,72.00001 -1.21504,1.65601 -3.85504,3.85019 -5.86667,4.87594 -3.4525,1.76048 -18.2459,1.86506 -263.92418,1.86583 l -260.266678,8.2e-4 z M 165.33334,75.157509 c 0,-24.129145 0.16793,-26.504994 2.14769,-30.385646 1.38235,-2.709636 3.64787,-4.975153 6.3575,-6.357506 4.15187,-2.118125 6.02014,-2.147666 135.71899,-2.146032 123.09468,0.0016 131.74318,0.120989 135.16667,1.866667 2.01163,1.025755 4.65163,3.219065 5.86667,4.874022 2.07857,2.831143 2.2279,4.643911 2.52633,30.666667 l 0.31717,27.657659 H 309.38385 165.33334 Z"
         id="path26" />
      <path
         style="fill:#fd9000"
         d="m 45.120833,580.18117 c -3.198411,-1.58319 -5.104654,-3.50924 -6.666667,-6.73593 -2.133869,-4.40798 -2.187498,-6.14975 -2.187498,-71.04522 0,-64.99341 0.05064,-66.63107 2.197449,-71.06578 1.59542,-3.2957 3.441075,-5.14136 6.736773,-6.73678 4.199169,-2.03278 6.46895,-2.19745 30.289942,-2.19745 h 25.750618 l 0.31261,42.59004 c 0.30165,41.0972 0.3897,42.69323 2.51185,45.5341 1.20958,1.61923 3.5246,3.93371 5.14447,5.14329 2.91823,2.17908 3.84924,2.20189 101.5341,2.4875 l 98.58886,0.28825 V 403.08527 287.72735 l -4,0.66031 c -2.2,0.36317 -5.8,1.16708 -8,1.78647 l -4,1.12615 v 61.0896 c 0,65.49481 -0.037,66.00517 -5.56879,76.8652 -2.84002,5.57551 -11.96113,15.10138 -17.65445,18.43789 -14.98968,8.78454 -34.56384,8.78454 -49.55352,0 -5.69332,-3.33651 -14.81443,-12.86238 -17.65445,-18.43789 -7.68721,-15.09149 -7.25172,-33.31543 1.13825,-47.63183 3.34226,-5.70313 12.86305,-14.81368 18.47,-17.67412 8.25195,-4.20984 16.1568,-5.83859 25.39217,-5.23194 4.74694,0.31182 9.71079,0.904 11.03079,1.31596 l 2.4,0.74901 v -43.6977 -43.6977 l 3.01976,-4.16004 c 3.43249,-4.72864 5.00503,-5.39548 23.64691,-10.02762 7.33333,-1.82219 15.13333,-3.78593 17.33333,-4.36386 l 4,-1.05079 v -44.22556 -44.22555 h 97.26323 c 96.02912,0 97.32083,0.0279 101.80256,2.19745 3.2957,1.59542 5.14135,3.44107 6.73677,6.73677 2.17947,4.50219 2.19745,5.53532 2.19745,126.28538 V 422.299 l 27.65766,0.31717 c 26.02275,0.29843 27.83552,0.44776 30.66666,2.52633 1.65496,1.21504 3.85386,3.85504 4.88644,5.86667 1.74387,3.39734 1.85769,8.56494 1.6,72.64657 -0.27295,67.87662 -0.31305,69.03762 -2.48658,72.00001 -1.21504,1.65601 -3.85504,3.85019 -5.86667,4.87594 -3.4525,1.76048 -18.2459,1.86506 -263.92418,1.86583 l -260.266678,8.2e-4 z M 165.33334,75.157509 c 0,-24.129145 0.16793,-26.504994 2.14769,-30.385646 1.38235,-2.709636 3.64787,-4.975153 6.3575,-6.357506 4.15187,-2.118125 6.02014,-2.147666 135.71899,-2.146032 123.09468,0.0016 131.74318,0.120989 135.16667,1.866667 2.01163,1.025755 4.65163,3.219065 5.86667,4.874022 2.07857,2.831143 2.2279,4.643911 2.52633,30.666667 l 0.31717,27.657659 H 309.38385 165.33334 Z"
         id="path25" />
      <path
         style="fill:#fd7715"
         d="m 45.120833,580.18117 c -3.198411,-1.58319 -5.104654,-3.50924 -6.666667,-6.73593 -2.133869,-4.40798 -2.187498,-6.14975 -2.187498,-71.04522 0,-64.99341 0.05064,-66.63107 2.197449,-71.06578 1.59542,-3.2957 3.441075,-5.14136 6.736773,-6.73678 4.199169,-2.03278 6.46895,-2.19745 30.289942,-2.19745 h 25.750618 l 0.31261,42.59004 c 0.30165,41.0972 0.3897,42.69323 2.51185,45.5341 1.20958,1.61923 3.5246,3.93371 5.14447,5.14329 2.91823,2.17908 3.84924,2.20189 101.5341,2.4875 l 98.58886,0.28825 V 403.08527 287.72735 l -4,0.66031 c -2.2,0.36317 -5.8,1.16708 -8,1.78647 l -4,1.12615 v 61.0896 c 0,65.49481 -0.037,66.00517 -5.56879,76.8652 -2.84002,5.57551 -11.96113,15.10138 -17.65445,18.43789 -14.98968,8.78454 -34.56384,8.78454 -49.55352,0 -5.69332,-3.33651 -14.81443,-12.86238 -17.65445,-18.43789 -7.68721,-15.09149 -7.25172,-33.31543 1.13825,-47.63183 3.34226,-5.70313 12.86305,-14.81368 18.47,-17.67412 8.25195,-4.20984 16.1568,-5.83859 25.39217,-5.23194 4.74694,0.31182 9.71079,0.904 11.03079,1.31596 l 2.4,0.74901 v -43.6977 -43.6977 l 3.01976,-4.16004 c 3.43249,-4.72864 5.00503,-5.39548 23.64691,-10.02762 7.33333,-1.82219 15.13333,-3.78593 17.33333,-4.36386 l 4,-1.05079 v -44.22556 -44.22555 h 97.26323 c 96.02912,0 97.32083,0.0279 101.80256,2.19745 3.2957,1.59542 5.14135,3.44107 6.73677,6.73677 2.17947,4.50219 2.19745,5.53532 2.19745,126.28538 V 422.299 l 27.65766,0.31717 c 26.02275,0.29843 27.83552,0.44776 30.66666,2.52633 1.65496,1.21504 3.85386,3.85504 4.88644,5.86667 1.74387,3.39734 1.85769,8.56494 1.6,72.64657 -0.27295,67.87662 -0.31305,69.03762 -2.48658,72.00001 -1.21504,1.65601 -3.85504,3.85019 -5.86667,4.87594 -3.4525,1.76048 -18.2459,1.86506 -263.92418,1.86583 l -260.266678,8.2e-4 z M 309.33334,68.800002 V 36.266668 l 65.86667,0.0017 c 72.71122,0.0018 70.28398,-0.215189 75.39085,6.740689 2.07857,2.831143 2.2279,4.643911 2.52633,30.666667 l 0.31717,27.657656 h -72.05051 -72.05051 z m -140.8,-26.53606 c 0,-0.221499 0.84,-1.061499 1.86667,-1.866666 1.69179,-1.326796 1.72952,-1.289067 0.40272,0.402725 -1.39346,1.776798 -2.26939,2.341845 -2.26939,1.463941 z"
         id="path24" />
      <path
         style="fill:#53a352"
         d="m 45.120833,580.18117 c -3.198411,-1.58319 -5.104654,-3.50924 -6.666667,-6.73593 -2.133869,-4.40798 -2.187498,-6.14975 -2.187498,-71.04522 0,-64.99341 0.05064,-66.63107 2.197449,-71.06578 1.59542,-3.2957 3.441075,-5.14136 6.736773,-6.73678 4.199169,-2.03278 6.46895,-2.19745 30.289942,-2.19745 h 25.750618 l 0.31261,42.59004 c 0.30165,41.0972 0.3897,42.69323 2.51185,45.5341 1.20958,1.61923 3.5246,3.93371 5.14447,5.14329 2.91823,2.17908 3.84924,2.20189 101.5341,2.4875 l 98.58886,0.28825 V 403.08527 287.72735 l -4,0.66031 c -2.2,0.36317 -5.8,1.16708 -8,1.78647 l -4,1.12615 v 61.0896 c 0,65.49481 -0.037,66.00517 -5.56879,76.8652 -2.84002,5.57551 -11.96113,15.10138 -17.65445,18.43789 -14.98968,8.78454 -34.56384,8.78454 -49.55352,0 -5.69332,-3.33651 -14.81443,-12.86238 -17.65445,-18.43789 -7.68721,-15.09149 -7.25172,-33.31543 1.13825,-47.63183 3.34226,-5.70313 12.86305,-14.81368 18.47,-17.67412 8.25195,-4.20984 16.1568,-5.83859 25.39217,-5.23194 4.74694,0.31182 9.71079,0.904 11.03079,1.31596 l 2.4,0.74901 v -43.6977 -43.6977 l 3.01976,-4.16004 c 3.43249,-4.72864 5.00503,-5.39548 23.64691,-10.02762 7.33333,-1.82219 15.13333,-3.78593 17.33333,-4.36386 l 4,-1.05079 v -44.22556 -44.22555 h 97.26323 c 96.02912,0 97.32083,0.0279 101.80256,2.19745 3.2957,1.59542 5.14135,3.44107 6.73677,6.73677 2.17947,4.50219 2.19745,5.53532 2.19745,126.28538 V 422.299 l 27.65766,0.31717 c 26.02275,0.29843 27.83552,0.44776 30.66666,2.52633 1.65496,1.21504 3.85386,3.85504 4.88644,5.86667 1.74387,3.39734 1.85769,8.56494 1.6,72.64657 -0.27295,67.87662 -0.31305,69.03762 -2.48658,72.00001 -1.21504,1.65601 -3.85504,3.85019 -5.86667,4.87594 -3.4525,1.76048 -18.2459,1.86506 -263.92418,1.86583 l -260.266678,8.2e-4 z"
         id="path23" />
      <path
         style="fill:#00ca6f"
         d="m 45.120833,580.18117 c -3.198411,-1.58319 -5.104654,-3.50924 -6.666667,-6.73593 -2.133869,-4.40798 -2.187498,-6.14975 -2.187498,-71.04522 0,-64.99341 0.05064,-66.63107 2.197449,-71.06578 1.59542,-3.2957 3.441075,-5.14136 6.736773,-6.73678 4.199336,-2.03286 6.468841,-2.19745 30.301188,-2.19745 h 25.761862 l 0.30137,43.12313 c 0.29134,41.68887 0.37484,43.22325 2.51052,46.13334 1.21503,1.65561 3.85503,3.84946 5.86666,4.87521 3.40334,1.73541 10.4586,1.86513 101.52418,1.86667 l 97.86667,0.002 v -115.8478 c 0,-98.80938 -0.21943,-115.76326 -1.49197,-115.27494 -0.82059,0.31489 -4.42059,1.1487 -8,1.8529 l -6.50803,1.28038 -0.006,58.79456 c -0.003,32.64932 -0.46347,61.58698 -1.03453,65.07408 -4.135,25.24974 -28.75358,43.12169 -53.98828,39.19301 -25.94444,-4.03918 -44.03279,-28.47776 -40.04354,-54.10153 4.15092,-26.66222 30.08489,-45.0649 55.87253,-39.64701 l 7.2,1.5127 v -41.69206 c 0,-23.92407 0.44373,-43.23924 1.04119,-45.32249 1.21871,-4.24938 4.79198,-8.39874 8.55881,-9.93866 1.46667,-0.59959 10.58667,-3.09857 20.26667,-5.55329 l 17.6,-4.46314 0.27837,-44.46687 0.27837,-44.46686 h 97.25153 c 96.0173,0 97.30913,0.0279 101.79085,2.19745 3.2957,1.59542 5.14135,3.44107 6.73677,6.73677 2.17947,4.50219 2.19745,5.53532 2.19745,126.28538 V 422.299 l 27.46667,0.31717 c 26.44448,0.30537 27.59078,0.40571 30.80183,2.69617 7.0975,5.0627 6.87507,2.40332 6.55439,78.36379 l -0.28955,68.59056 -2.379,3.33516 c -5.27483,7.39489 18.40507,6.79826 -269.78222,6.79733 l -260.105468,-8.4e-4 z"
         id="path22" />
      <path
         style="fill:#16a05e"
         d="m 45.120833,580.18117 c -3.198411,-1.58319 -5.104654,-3.50924 -6.666667,-6.73593 -2.133869,-4.40798 -2.187498,-6.14975 -2.187498,-71.04522 0,-64.99341 0.05064,-66.63107 2.197449,-71.06578 1.59542,-3.2957 3.441075,-5.14136 6.736773,-6.73678 4.199336,-2.03286 6.468841,-2.19745 30.301188,-2.19745 h 25.761862 l 0.30137,43.12313 c 0.29134,41.68887 0.37484,43.22325 2.51052,46.13334 1.21503,1.65561 3.85503,3.84946 5.86666,4.87521 3.4426,1.75543 15.12308,1.86511 198.78741,1.86667 194.8493,0.002 195.13643,-0.002 199.66923,-2.19579 3.2957,-1.59542 5.14135,-3.44108 6.73677,-6.73677 2.10287,-4.34394 2.19745,-6.31759 2.19745,-45.85307 V 422.299 l 27.46667,0.31717 c 26.44448,0.30537 27.59078,0.40571 30.80183,2.69617 7.0975,5.0627 6.87507,2.40332 6.55439,78.36379 l -0.28955,68.59056 -2.379,3.33516 c -5.27483,7.39489 18.40507,6.79826 -269.78222,6.79733 L 49.600002,582.39834 Z M 236.49605,453.29098 c -18.93054,-3.18275 -35.15882,-20.10146 -38.23524,-39.86198 -4.97699,-31.96817 24.49542,-60.29721 55.87253,-53.70499 l 7.2,1.5127 v -41.69206 c 0,-23.92407 0.44373,-43.23924 1.04119,-45.32249 1.21914,-4.25089 4.79367,-8.40056 8.55881,-9.93592 7.71393,-3.14561 129.98886,-33.8221 134.93334,-33.85224 5.21511,-0.0318 10.48277,3.00485 13.3391,7.68959 2.0587,3.37655 2.11938,5.4989 2.11203,73.87642 -0.008,75.67014 0.0928,74.13933 -5.63572,85.43939 -1.45749,2.875 -5.2222,7.7995 -8.36602,10.94333 -9.40101,9.40101 -20.55485,13.99419 -33.98272,13.99419 -21.85984,0 -39.99581,-13.68195 -46.48782,-35.07085 -1.91212,-6.29976 -1.91212,-19.51235 0,-25.81211 5.13267,-16.91035 17.95996,-29.36588 35.00652,-33.99198 5.04112,-1.36806 20.01163,-1.05102 25.0813,0.53117 l 2.4,0.74901 v -30.52441 c 0,-16.78842 -0.29898,-30.52441 -0.6644,-30.52441 -0.36542,0 -17.76542,4.26555 -38.66667,9.47901 -20.90125,5.21345 -42.20227,10.32847 -47.3356,11.36671 l -9.33334,1.8877 -0.006,58.76663 c -0.003,32.63139 -0.46352,61.55931 -1.03453,65.04615 -3.20633,19.57894 -19.50082,35.87343 -39.07976,39.07976 -7.09002,1.16109 -9.46212,1.15139 -16.71682,-0.0683 z"
         id="path21" />
      <path
         style="fill:#67534e"
         d="m 45.120833,580.18117 c -3.198411,-1.58319 -5.104654,-3.50924 -6.666667,-6.73593 -2.133869,-4.40798 -2.187498,-6.14975 -2.187498,-71.04522 0,-64.99341 0.05064,-66.63107 2.197449,-71.06578 1.59542,-3.2957 3.441075,-5.14136 6.736773,-6.73678 4.199336,-2.03286 6.468841,-2.19745 30.301188,-2.19745 h 25.761862 l 0.30137,43.12313 c 0.29134,41.68887 0.37484,43.22325 2.51052,46.13334 1.21503,1.65561 3.85503,3.84946 5.86666,4.87521 3.44276,1.75551 15.15011,1.86501 199.39085,1.86501 184.24075,0 195.9481,-0.1095 199.39085,-1.86501 2.01163,-1.02575 4.65163,-3.2196 5.86667,-4.87521 2.13579,-2.91025 2.21917,-4.44397 2.51065,-46.18365 l 0.30148,-43.17344 27.43185,0.31698 c 26.40859,0.30515 27.55625,0.40572 30.76701,2.69597 7.0975,5.0627 6.87507,2.40332 6.55439,78.36379 l -0.28955,68.59056 -2.379,3.33516 c -5.27483,7.39489 18.40507,6.79826 -269.78222,6.79733 L 49.600002,582.39834 Z M 236.49605,453.29098 c -18.93054,-3.18275 -35.15882,-20.10146 -38.23524,-39.86198 -4.97699,-31.96817 24.49542,-60.29721 55.87253,-53.70499 l 7.2,1.5127 0.006,-41.68502 c 0.003,-24.16412 0.44895,-43.27968 1.05992,-45.47898 1.19248,-4.2926 5.39455,-8.61253 10.13413,-10.41842 1.76,-0.67059 31.99036,-8.47554 67.17858,-17.34433 67.66478,-17.05412 68.83856,-17.25495 75.03997,-12.83916 6.77167,4.82186 6.58146,2.56173 6.58146,78.19964 0,74.81764 -0.0749,75.87327 -6.11424,86.18064 -19.06528,32.53879 -64.70625,32.53879 -83.77153,0 -7.93534,-13.54328 -7.93534,-33.35886 0,-46.90213 11.26047,-19.2183 32.7577,-28.16378 54.95243,-22.86696 l 2.93334,0.70005 v -30.52435 c 0,-19.0571 -0.38959,-30.52435 -1.03704,-30.52435 -0.57038,0 -19.17038,4.51633 -41.33334,10.03629 -22.16296,5.51996 -43.29629,10.62241 -46.96296,11.33878 l -6.66667,1.30249 -0.006,58.79456 c -0.003,32.64932 -0.46347,61.58698 -1.03453,65.07408 -3.20633,19.57894 -19.50082,35.87343 -39.07976,39.07976 -7.09002,1.16109 -9.46212,1.15139 -16.71682,-0.0683 z"
         id="path20" />
      <path
         style="fill:#524e41"
         d="m 309.33334,550.41652 v -32.0165 l 97.86667,-0.002 c 91.06559,-0.002 98.12085,-0.13126 101.52418,-1.86667 2.01163,-1.02575 4.65163,-3.2196 5.86667,-4.87521 2.13583,-2.91029 2.21917,-4.44381 2.51068,-46.19963 l 0.30153,-43.18942 27.08959,0.33296 c 29.81126,0.36641 29.69815,0.34172 35.17478,7.67708 2.16833,2.90424 2.19925,3.91817 2.19925,72.12255 0,68.20437 -0.0309,69.21831 -2.19925,72.12254 -1.20958,1.6201 -3.52467,3.9353 -5.14463,5.14488 -2.93252,2.18963 -3.51867,2.20048 -134.06743,2.48241 l -131.12204,0.28317 z m -72.83729,-97.12554 c -18.93054,-3.18275 -35.15882,-20.10146 -38.23524,-39.86198 -4.97699,-31.96817 24.49542,-60.29721 55.87253,-53.70499 l 7.2,1.5127 0.006,-41.68502 c 0.003,-24.16412 0.44895,-43.27968 1.05992,-45.47898 1.19248,-4.2926 5.39455,-8.61253 10.13413,-10.41842 1.76,-0.67059 31.99036,-8.47554 67.17858,-17.34433 67.66478,-17.05412 68.83856,-17.25495 75.03997,-12.83916 6.77167,4.82186 6.58146,2.56173 6.58146,78.19964 0,74.81764 -0.0749,75.87327 -6.11424,86.18064 -19.06528,32.53879 -64.70625,32.53879 -83.77153,0 -7.93534,-13.54328 -7.93534,-33.35886 0,-46.90213 11.26047,-19.2183 32.7577,-28.16378 54.95243,-22.86696 l 2.93334,0.70005 v -30.52435 c 0,-19.0571 -0.38959,-30.52435 -1.03704,-30.52435 -0.57038,0 -19.17038,4.51633 -41.33334,10.03629 -22.16296,5.51996 -43.29629,10.62241 -46.96296,11.33878 l -6.66667,1.30249 -0.006,58.79456 c -0.003,32.64932 -0.46347,61.58698 -1.03453,65.07408 -3.20633,19.57894 -19.50082,35.87343 -39.07976,39.07976 -7.09002,1.16109 -9.46212,1.15139 -16.71682,-0.0683 z"
         id="path19" />
      <path
         style="fill:#2b6c49"
         d="m 309.33334,550.44189 v -31.99913 l 99.46667,-0.28804 c 90.63324,-0.26246 99.68849,-0.44513 101.96444,-2.05694 6.17439,-4.37267 6.00905,-3.06217 6.34747,-50.31152 l 0.3119,-43.54709 27.07893,0.34709 c 29.79593,0.38191 29.69026,0.3588 35.16469,7.69121 2.16833,2.90424 2.19925,3.91817 2.19925,72.12255 0,68.20437 -0.0309,69.21831 -2.19925,72.12254 -1.20958,1.6201 -3.52464,3.9353 -5.14458,5.14488 -2.9324,2.18958 -3.52172,2.20051 -134.06743,2.48641 l -131.12209,0.28717 z m -68.62388,-96.73041 c -0.0969,-0.0854 -1.95356,-0.38957 -4.126,-0.67601 -6.52752,-0.86067 -17.56379,-6.71416 -23.82673,-12.63739 -5.69226,-5.3835 -12.53017,-16.86976 -13.88948,-23.3314 -0.72574,-3.44992 -0.72574,-17.88341 0,-21.33333 1.35931,-6.46164 8.19722,-17.9479 13.88948,-23.3314 5.4806,-5.18333 16.12266,-11.21222 22.03392,-12.48257 4.61023,-0.99075 18.48631,-0.65277 21.54546,0.52478 1.65153,0.63572 3.42668,1.15585 3.94477,1.15585 0.52421,0 1.08476,-19.27818 1.2639,-43.46667 0.29032,-39.20365 0.50715,-43.80567 2.21076,-46.92329 3.54264,-6.48302 0.31273,-5.47553 93.57781,-29.18914 49.10412,-12.48523 51.40997,-12.82859 57.41854,-8.55011 6.77167,4.82186 6.58146,2.56173 6.58146,78.19964 0,74.81764 -0.0749,75.87327 -6.11424,86.18064 -19.06528,32.53879 -64.70625,32.53879 -83.77153,0 -7.93534,-13.54328 -7.93534,-33.35886 0,-46.90213 11.26047,-19.2183 32.7577,-28.16378 54.95243,-22.86696 l 2.93334,0.70005 v -30.52435 c 0,-20.07733 -0.37312,-30.52435 -1.09018,-30.52435 -0.5996,0 -17.5196,4.12043 -37.6,9.15651 -20.08041,5.03608 -38.66983,9.5527 -41.30983,10.03693 -2.64,0.48423 -6,1.15571 -7.46666,1.49217 -1.46667,0.33646 -3.98667,0.89798 -5.6,1.24782 l -2.93334,0.63608 -0.1519,57.78191 c -0.15125,57.53684 -0.21745,61.10347 -1.25647,67.69617 -0.98794,6.26857 -6.92266,17.19955 -12.59356,23.19569 -5.79109,6.12322 -17.56803,12.90407 -24.23723,13.95515 -3.30748,0.52126 -14.01912,1.10188 -14.38472,0.77971 z"
         id="path18" />
      <path
         style="fill:#52423e"
         d="m 309.33334,550.42052 v -32.0205 h 98.41665 c 93.27842,0 98.60639,-0.10176 102.05092,-1.94909 7.50751,-4.02632 7.53244,-4.1975 7.53244,-51.71513 v -42.49749 l 27.12417,0.34752 c 29.84652,0.3824 29.73451,0.35793 35.20992,7.69164 2.16833,2.90424 2.19925,3.91817 2.19925,72.12255 0,68.20437 -0.0309,69.21831 -2.19925,72.12254 -1.20958,1.6201 -3.52464,3.9353 -5.14458,5.14488 -2.9324,2.18958 -3.52172,2.20051 -134.06743,2.48641 l -131.12209,0.28717 z m -78.41393,-98.94735 c -12.95418,-4.62118 -22.82845,-13.47523 -28.58876,-25.63494 -3.20595,-6.7676 -3.39731,-7.8625 -3.39731,-19.43822 0,-11.58883 0.1887,-12.66503 3.41488,-19.47576 4.74135,-10.00938 12.64571,-18.04641 22.57945,-22.95842 7.7246,-3.81964 8.43523,-3.96582 19.27961,-3.96582 6.19267,0 12.55436,0.40575 14.1371,0.90167 l 2.8777,0.90168 0.3223,-43.56834 c 0.29072,-39.30055 0.50732,-43.90694 2.21116,-47.02497 3.54554,-6.48833 -0.75007,-5.15908 93.82616,-29.03405 25.65659,-6.4768 47.67124,-11.77599 48.92143,-11.77599 3.9817,0 10.67691,4.57386 12.80698,8.74913 1.92307,3.76953 2.02324,7.28788 2.02324,71.06279 0,41.17786 -0.42058,69.3146 -1.08875,72.83787 -4.74922,25.04252 -29.31443,42.58147 -53.92757,38.50294 -20.92531,-3.46744 -36.66897,-19.2111 -40.13641,-40.13641 -5.23858,-31.61382 25.02891,-60.68762 55.95273,-53.74606 l 7.2,1.6162 v -31.18193 -31.18193 l -39.73334,9.84542 c -21.85333,5.41498 -43.45333,10.67833 -48,11.69633 l -8.26667,1.85092 -0.0329,56.70903 c -0.0181,31.18997 -0.49672,60.28274 -1.06357,64.65059 -2.11996,16.33545 -11.76826,29.87753 -26.46007,37.13862 -7.37755,3.64619 -8.79817,3.96872 -18.74628,4.25617 -8.24517,0.23824 -12.01503,-0.13533 -16.11108,-1.59652 z"
         id="path17" />
      <path
         style="fill:#394839"
         d="m 363.8489,421.2463 c -24.22839,-4.75817 -41.67197,-29.7011 -37.66828,-53.8626 4.45874,-26.90762 30.53855,-45.41822 55.95273,-39.71343 l 7.2,1.6162 v -31.18205 -31.18204 l -39.73334,9.97585 c -21.85333,5.48672 -39.85333,9.98919 -40,10.00548 -0.14667,0.0163 -0.26667,-7.35046 -0.26667,-16.37057 v -16.40021 l 47.45799,-11.86646 c 26.10189,-6.52655 48.47654,-11.86646 49.72144,-11.86646 3.97311,0 10.6694,4.57804 12.79734,8.74913 1.92307,3.76953 2.02324,7.28788 2.02324,71.06279 0,41.17786 -0.42058,69.3146 -1.08875,72.83787 -4.93956,26.04616 -30.41303,43.2992 -56.3957,38.1965 z"
         id="path16" />
      <path
         style="fill:#3d312d"
         d="m 366.40001,421.27765 c -14.64106,-2.3478 -25.77258,-9.6402 -33.63148,-22.0324 -8.8579,-13.96746 -8.8579,-35.72302 0,-49.69048 5.76423,-9.08924 16.04007,-17.42299 24.7416,-20.06553 9.68544,-2.94135 21.2761,-3.09299 29.79309,-0.38981 1.96448,0.62351 2.03013,-0.37552 2.03013,-30.89421 0,-17.3462 -0.12,-31.52521 -0.26667,-31.50892 -0.14667,0.0163 -18.14667,4.51877 -40,10.00548 l -39.73334,9.97586 v -16.16133 -16.16134 l 48.26667,-11.99024 c 42.76624,-10.62384 48.71251,-11.86428 52.17892,-10.88491 5.29517,1.49606 10.16944,7.25033 11.01911,13.00851 0.37156,2.51809 0.49506,34.81835 0.27444,71.77835 -0.35613,59.66274 -0.60351,67.78809 -2.20558,72.44323 -7.71992,22.43185 -29.88315,36.18921 -52.46689,32.56774 z"
         id="path15" />
    </g>
  </g>
</svg>
